<svg width="201" height="70" viewBox="0 0 201 70" fill="none" xmlns="http://www.w3.org/2000/svg">
<path d="M23.1238 20.0951C22.7869 15.4911 26.4313 11.5703 31.0476 11.5703H65.4592C70.0755 11.5703 73.7199 15.4911 73.383 20.0951L70.9522 53.3163C70.6484 57.4681 67.1914 60.6814 63.0284 60.6814H33.4784C29.3154 60.6814 25.8584 57.4681 25.5546 53.3163L23.1238 20.0951Z" fill="#EC1040"/>
<path d="M129.914 19.5241C129.578 14.9204 133.222 11 137.838 11H173.261C177.877 11 181.521 14.9204 181.185 19.5241L178.682 53.7636C178.379 57.9158 174.921 61.1295 170.758 61.1295H140.34C136.177 61.1295 132.72 57.9157 132.417 53.7636L129.914 19.5241Z" fill="#FB9700"/>
<path d="M79.818 18.6485C80.2601 14.6203 83.6631 11.5703 87.7155 11.5703H116.509C120.598 11.5703 124.02 14.6741 124.417 18.7438L127.658 51.965C128.113 56.6356 124.443 60.6814 119.75 60.6814H84.0693C79.3382 60.6814 75.6556 56.5725 76.1717 51.8697L79.818 18.6485Z" fill="#4AB424"/>
<path d="M50.9327 23.3085L56.6312 23.1953L56.7067 50.0652H51.1214V44.2912H41.7622V39.1965L50.9327 23.3085ZM48.5174 38.7059H51.1214V34.1773L48.5174 38.7059Z" fill="#B21033"/>
<path d="M97.193 28.4774C97.6081 23.194 104.25 21.3071 108.099 24.9677C109.534 26.7415 109.534 28.8926 109.458 29.6473V43.988C109.118 47.7619 107.307 50.3659 103.042 50.3659C102.967 50.3659 102.816 50.3659 102.741 50.3659C100.703 50.3659 99.0044 49.3469 97.9855 47.46C97.4949 46.5543 97.1552 45.4221 97.1552 44.2522C97.1175 41.9501 96.9288 30.8927 97.193 28.4774ZM104.288 29.27C104.363 28.7416 102.514 28.7794 102.514 29.3077C102.325 31.6098 102.476 39.2707 102.59 44.2522C102.59 44.7805 104.137 44.9315 104.288 44.2522V29.27Z" fill="#17832F"/>
<path d="M158.729 23.3085L164.427 23.1953L164.503 50.0652H158.917V44.2912H149.558V39.1965L158.729 23.3085ZM156.313 38.7059H158.917V34.1773L156.313 38.7059Z" fill="#EB712C"/>
<path d="M49.4928 21.871L55.1913 21.7578L55.2668 48.6277H49.6815V42.8537H40.3223V37.759L49.4928 21.871ZM47.0775 37.2684H49.6815V32.7398L47.0775 37.2684Z" fill="white"/>
<path d="M95.7535 27.0478C96.1686 21.7643 102.811 19.8774 106.66 23.5381C108.094 25.3118 108.094 27.4629 108.019 28.2177V42.5583C107.679 46.3322 105.867 48.9362 101.603 48.9362C101.528 48.9362 101.377 48.9362 101.301 48.9362C99.2632 48.9362 97.565 47.9172 96.546 46.0303C96.0554 45.1246 95.7158 43.9924 95.7158 42.8225C95.678 40.5205 95.4893 29.463 95.7535 27.0478ZM102.848 27.8403C102.924 27.3119 101.075 27.3497 101.075 27.878C100.886 30.1801 101.037 37.841 101.15 42.8225C101.15 43.3509 102.697 43.5018 102.848 42.8225V27.8403Z" fill="white"/>
<path d="M157.289 21.871L162.988 21.7578L163.063 48.6277H157.478V42.8537H148.119V37.759L157.289 21.871ZM154.874 37.2684H157.478V32.7398L154.874 37.2684Z" fill="white"/>
</svg>
