<svg width="24" height="24" viewBox="0 0 24 24" fill="none" xmlns="http://www.w3.org/2000/svg">
<path fill-rule="evenodd" clip-rule="evenodd" d="M9.92682 2H14.0732C15.8965 1.99997 17.3663 1.99995 18.5223 2.15543C19.7225 2.31684 20.7331 2.66218 21.5354 3.4652C22.338 4.26743 22.6832 5.27785 22.8446 6.47771C23.0001 7.63368 23 9.10351 23 10.9268V11.0732C23 12.8965 23.0001 14.3663 22.8446 15.5223C22.6832 16.7221 22.338 17.7326 21.5354 18.5348C20.7331 19.3378 19.7225 19.6832 18.5223 19.8446C17.3663 20.0001 15.8965 20 14.0732 20H14C13.4477 20 13 19.5523 13 19C13 18.4477 13.4477 18 14 18C15.9138 18 17.2486 17.9979 18.2557 17.8624C19.2341 17.7308 19.7519 17.4902 20.1206 17.1212C20.4896 16.7525 20.7308 16.2341 20.8624 15.2557C20.9979 14.2486 21 12.9138 21 11C21 9.08622 20.9979 7.7514 20.8624 6.7443C20.7308 5.76595 20.4902 5.24808 20.1212 4.87941C19.7525 4.51042 19.2341 4.26916 18.2557 4.13758C17.2486 4.00213 15.9138 4 14 4H10C8.08622 4 6.7514 4.00213 5.7443 4.13758C4.76595 4.26916 4.24808 4.50982 3.87941 4.87881C3.51042 5.24748 3.26916 5.76595 3.13758 6.7443C3.00213 7.7514 3 9.08622 3 11C3 12.9138 3.00213 14.2486 3.13758 15.2557C3.26916 16.2341 3.50982 16.7519 3.87881 17.1206L3.87965 17.1214C4.29012 17.5325 4.88534 17.7843 6.09723 17.9027C6.6469 17.9564 7.04896 18.4456 6.99526 18.9952C6.94157 19.5449 6.45244 19.947 5.90277 19.8933C4.5149 19.7577 3.36028 19.4316 2.46482 18.535C1.66207 17.7328 1.31682 16.7223 1.15543 15.5223C0.999951 14.3663 0.999973 12.8965 1 11.0732V10.9268C0.999973 9.1035 0.999951 7.63368 1.15543 6.47771C1.31682 5.2777 1.6621 4.26718 2.46489 3.46489C3.26718 2.6621 4.2777 2.31682 5.47771 2.15543C6.63368 1.99995 8.1035 1.99997 9.92682 2Z" fill="#323637"/>
<path fill-rule="evenodd" clip-rule="evenodd" d="M8.00018 10C8.55247 10 9.00018 10.4477 9.00018 11V11.01C9.00018 11.5623 8.55247 12.01 8.00018 12.01C7.4479 12.01 7.00018 11.5623 7.00018 11.01V11C7.00018 10.4477 7.4479 10 8.00018 10ZM12.0002 10C12.5525 10 13.0002 10.4477 13.0002 11V11.01C13.0002 11.5623 12.5525 12.01 12.0002 12.01C11.4479 12.01 11.0002 11.5623 11.0002 11.01V11C11.0002 10.4477 11.4479 10 12.0002 10ZM16.0002 10C16.5525 10 17.0002 10.4477 17.0002 11V11.01C17.0002 11.5623 16.5525 12.01 16.0002 12.01C15.4479 12.01 15.0002 11.5623 15.0002 11.01V11C15.0002 10.4477 15.4479 10 16.0002 10ZM6.58995 16.504C7.14 16.5536 7.54572 17.0397 7.49614 17.5898L7.45404 18.0569C7.35802 19.109 7.2963 19.8058 7.3092 20.2858C7.31034 20.3284 7.31207 20.3669 7.3142 20.4014C7.36453 20.3846 7.42213 20.3639 7.48773 20.3384C7.98562 20.1449 8.67644 19.7879 9.69851 19.2574C10.9912 18.5866 12.5247 18 14.0002 18C14.5525 18 15.0002 18.4477 15.0002 19C15.0002 19.5523 14.5525 20 14.0002 20C13.0037 20 11.8131 20.4134 10.6198 21.0326C10.6198 21.0326 10.6199 21.0326 10.6198 21.0326L10.5586 21.0644C9.61009 21.5567 8.82314 21.9652 8.21214 22.2026C7.89803 22.3247 7.56476 22.4286 7.23588 22.4596C6.89401 22.4919 6.48584 22.451 6.11257 22.2001C5.41018 21.7286 5.32475 20.8914 5.30992 20.3395C5.29341 19.7252 5.36814 18.9067 5.45667 17.937L5.50422 17.4102C5.55379 16.8602 6.03989 16.4545 6.58995 16.504Z" fill="#323637"/>
</svg>
