<svg width="32" height="28" viewBox="0 0 32 28" fill="none" xmlns="http://www.w3.org/2000/svg">
<path d="M7.38627 24.4936C7.02607 24.4936 4.23453 15.2456 2.88379 10.6215C6.48577 8.83159 11.4385 13.3065 10.9882 12.4115C10.538 11.5165 14.5902 2.56679 16.3912 3.01427C17.832 3.37226 21.1939 9.42824 22.6947 12.4115C24.8559 9.54757 28.0977 9.12991 29.4484 9.27908C29.0882 14.2909 25.3962 21.5104 23.5952 24.4936C22.2444 24.9411 7.83651 24.4936 7.38627 24.4936Z" fill="url(#paint0_linear_6128_8701)"/>
<path fill-rule="evenodd" clip-rule="evenodd" d="M0 9.28546L1.86413 8.35911C4.70551 6.94713 7.74345 8.08887 9.43263 8.89762C9.7939 7.98866 10.251 6.98461 10.749 6.01832C11.375 4.80357 12.1224 3.53754 12.8915 2.56701C13.2688 2.0909 13.7344 1.57892 14.2737 1.18987C14.7516 0.845075 15.7316 0.278166 16.9404 0.578517C17.6701 0.759831 18.2276 1.19902 18.5495 1.48348C18.9191 1.81013 19.2688 2.19912 19.5851 2.5876C20.2209 3.36837 20.8861 4.35175 21.5133 5.35448C22.144 6.36279 22.7726 7.44981 23.3403 8.4769C25.7341 6.88374 28.3219 6.63783 29.6979 6.78978L32 7.044L31.8258 9.46762C31.6138 12.4177 30.4603 15.7978 29.2389 18.6683C27.9947 21.5925 26.5654 24.2495 25.6089 25.834L25.1428 26.606L24.3127 26.881C23.9925 26.9871 23.6604 27.0316 23.4629 27.055C23.2209 27.0837 22.9473 27.105 22.6618 27.1216C22.0884 27.1551 21.3744 27.1749 20.587 27.1856C19.007 27.207 17.0402 27.1927 15.12 27.1646C13.1961 27.1365 11.3025 27.0943 9.86379 27.0593C9.19749 27.043 8.62795 27.0283 8.19841 27.0172L7.57276 27.0013C7.47639 26.9989 7.42325 26.9978 7.40009 26.9974C7.388 26.9971 7.38408 26.997 7.38644 26.997C6.77815 26.997 6.33154 26.759 6.10429 26.6098C5.86674 26.4539 5.70323 26.2867 5.61353 26.1871C5.43541 25.9893 5.31849 25.7984 5.26379 25.7055C5.14274 25.5 5.04416 25.2837 4.97484 25.1237C4.82599 24.7801 4.65884 24.3347 4.48708 23.8509C4.13784 22.8672 3.70183 21.5314 3.24358 20.0789C2.32424 17.1648 1.283 13.6776 0.604759 11.3557L0 9.28546ZM24.5097 10.6668C23.8673 11.1101 23.246 11.6814 22.6949 12.4117C22.3637 11.7534 21.9419 10.9455 21.4701 10.0822C19.8039 7.03322 17.5143 3.29345 16.3914 3.01445C15.1081 2.6956 12.6818 7.14792 11.5558 10.0577C11.5501 10.0725 11.5444 10.0873 11.5387 10.1021C11.0955 11.2548 10.8606 12.1576 10.9884 12.4117C11.0563 12.5466 11.0014 12.5595 10.8468 12.4902C10.7074 12.4277 10.4869 12.2983 10.2022 12.1313C9.84954 11.9244 9.3984 11.6597 8.88114 11.3929C8.81198 11.3573 8.74164 11.3216 8.6702 11.286C7.67728 10.7911 6.471 10.3148 5.2587 10.2142C4.84038 10.1795 4.42134 10.1896 4.0101 10.259C3.62558 10.324 3.24787 10.4409 2.88396 10.6217C4.2347 15.2457 7.02624 24.4938 7.38644 24.4938C7.44698 24.4938 7.75986 24.5019 8.25943 24.5148C11.4752 24.598 22.4262 24.8811 23.5954 24.4938C25.1158 21.9753 27.984 16.4376 29.0574 11.7579C29.1962 11.1529 29.3049 10.5624 29.3769 9.99447C29.4077 9.7517 29.4318 9.51307 29.4486 9.27926C29.3724 9.27085 29.2903 9.26424 29.2027 9.25977C28.6516 9.23166 27.8839 9.2881 27.0321 9.51281C26.2291 9.72461 25.3514 10.0859 24.5097 10.6668Z" fill="url(#paint1_linear_6128_8701)"/>
<path d="M7.38627 24.4936C7.02607 24.4936 4.23453 15.2456 2.88379 10.6215C6.48577 8.83159 11.4385 13.3065 10.9882 12.4115C10.538 11.5165 14.5902 2.56679 16.3912 3.01427C17.832 3.37226 21.1939 9.42824 22.6947 12.4115C24.8559 9.54757 28.0977 9.12991 29.4484 9.27908C29.0882 14.2909 25.3962 21.5104 23.5952 24.4936C22.2444 24.9411 7.83651 24.4936 7.38627 24.4936Z" fill="url(#paint2_linear_6128_8701)"/>
<path d="M8.36206 22.9726C8.04189 22.9726 5.56052 15.0457 4.35986 11.0823C7.56162 9.54803 11.964 13.3836 11.5638 12.6165C11.1636 11.8494 14.7656 4.1782 16.3665 4.56176C17.6472 4.86861 20.6355 10.0594 21.9695 12.6165C23.8906 10.1617 26.7722 9.80374 27.9728 9.93159C27.6527 14.2275 24.3709 20.4156 22.77 22.9726C21.5693 23.3562 8.76228 22.9726 8.36206 22.9726Z" fill="url(#paint3_linear_6128_8701)"/>
<defs>
<linearGradient id="paint0_linear_6128_8701" x1="16.1647" y1="3.5225" x2="16.1647" y2="25.5489" gradientUnits="userSpaceOnUse">
<stop stop-color="#FFE400"/>
<stop offset="0.25" stop-color="#F58C25"/>
<stop offset="0.58" stop-color="#FD5C01"/>
<stop offset="1" stop-color="#FF5301"/>
</linearGradient>
<linearGradient id="paint1_linear_6128_8701" x1="15.5986" y1="-0.339384" x2="17.3503" y2="29.6896" gradientUnits="userSpaceOnUse">
<stop stop-color="#E07709"/>
<stop offset="0.54" stop-color="#EE530B"/>
<stop offset="0.905" stop-color="#B1420E"/>
</linearGradient>
<linearGradient id="paint2_linear_6128_8701" x1="16.1647" y1="3.5225" x2="16.1647" y2="25.5489" gradientUnits="userSpaceOnUse">
<stop stop-color="#FFE400"/>
<stop offset="0.25" stop-color="#F58C25"/>
<stop offset="0.58" stop-color="#FD5C01"/>
<stop offset="1" stop-color="#FF5301"/>
</linearGradient>
<linearGradient id="paint3_linear_6128_8701" x1="16.1651" y1="4.99738" x2="34.3466" y2="32.4142" gradientUnits="userSpaceOnUse">
<stop stop-color="#FFE400"/>
<stop offset="0.5" stop-color="#FF9000"/>
<stop offset="1" stop-color="#FF8900"/>
</linearGradient>
</defs>
</svg>
