<svg width="46" height="26" viewBox="0 0 46 26" fill="none" xmlns="http://www.w3.org/2000/svg">
<g clip-path="url(#clip0_5401_18050)">
<path fill-rule="evenodd" clip-rule="evenodd" d="M0 24.4221C0 25.7627 2.64385 25.9642 4 25.9945V21.001C2.14397 21.0332 0 21.781 0 24.4221Z" fill="#17832F"/>
<path d="M0.000211309 8C0.000211309 3.58172 3.58193 0 8.00021 0H39.0002C42.8662 0 46.0002 3.13401 46.0002 7V14.6791C46.0002 18.8512 42.3629 22.1892 38.1923 22.078C36.4352 22.0312 34.3738 22 32.0002 22C22.5002 22 -0.499788 19.5 0.000211309 24.5V8Z" fill="#4AB424"/>
<path d="M15.8503 16V12.175C15.8503 11.99 15.8403 11.755 15.8203 11.47C15.8003 11.18 15.7378 10.89 15.6328 10.6C15.5278 10.31 15.3553 10.0675 15.1153 9.8725C14.8803 9.6775 14.5453 9.58 14.1103 9.58C13.9353 9.58 13.7478 9.6075 13.5478 9.6625C13.3478 9.7175 13.1603 9.825 12.9853 9.985C12.8103 10.14 12.6653 10.37 12.5503 10.675C12.4403 10.98 12.3853 11.385 12.3853 11.89L11.2153 11.335C11.2153 10.695 11.3453 10.095 11.6053 9.535C11.8653 8.975 12.2553 8.5225 12.7753 8.1775C13.3003 7.8325 13.9603 7.66 14.7553 7.66C15.3903 7.66 15.9078 7.7675 16.3078 7.9825C16.7078 8.1975 17.0178 8.47 17.2378 8.8C17.4628 9.13 17.6228 9.475 17.7178 9.835C17.8128 10.19 17.8703 10.515 17.8903 10.81C17.9103 11.105 17.9203 11.32 17.9203 11.455V16H15.8503ZM10.3153 16V7.9H12.1303V10.585H12.3853V16H10.3153ZM23.4849 16.225C22.6549 16.225 21.9224 16.0475 21.2874 15.6925C20.6574 15.3325 20.1624 14.84 19.8024 14.215C19.4474 13.585 19.2699 12.865 19.2699 12.055C19.2699 11.17 19.4449 10.4 19.7949 9.745C20.1449 9.09 20.6274 8.5825 21.2424 8.2225C21.8574 7.8575 22.5649 7.675 23.3649 7.675C24.2149 7.675 24.9374 7.875 25.5324 8.275C26.1274 8.675 26.5674 9.2375 26.8524 9.9625C27.1374 10.6875 27.2374 11.54 27.1524 12.52H25.1349V11.77C25.1349 10.945 25.0024 10.3525 24.7374 9.9925C24.4774 9.6275 24.0499 9.445 23.4549 9.445C22.7599 9.445 22.2474 9.6575 21.9174 10.0825C21.5924 10.5025 21.4299 11.125 21.4299 11.95C21.4299 12.705 21.5924 13.29 21.9174 13.705C22.2474 14.115 22.7299 14.32 23.3649 14.32C23.7649 14.32 24.1074 14.2325 24.3924 14.0575C24.6774 13.8825 24.8949 13.63 25.0449 13.3L27.0849 13.885C26.7799 14.625 26.2974 15.2 25.6374 15.61C24.9824 16.02 24.2649 16.225 23.4849 16.225ZM20.7999 12.52V11.005H26.1699V12.52H20.7999ZM30.2779 16L27.8029 7.885L29.7979 7.9L31.2679 12.73L32.7604 7.9H34.4554L35.9479 12.73L37.4179 7.9H39.4129L36.9379 16H35.3779L33.6079 10.72L31.8379 16H30.2779Z" fill="#17832F"/>
<path d="M14.8503 15V11.175C14.8503 10.99 14.8403 10.755 14.8203 10.47C14.8003 10.18 14.7378 9.89 14.6328 9.6C14.5278 9.31 14.3553 9.0675 14.1153 8.8725C13.8803 8.6775 13.5453 8.58 13.1103 8.58C12.9353 8.58 12.7478 8.6075 12.5478 8.6625C12.3478 8.7175 12.1603 8.825 11.9853 8.985C11.8103 9.14 11.6653 9.37 11.5503 9.675C11.4403 9.98 11.3853 10.385 11.3853 10.89L10.2153 10.335C10.2153 9.695 10.3453 9.095 10.6053 8.535C10.8653 7.975 11.2553 7.5225 11.7753 7.1775C12.3003 6.8325 12.9603 6.66 13.7553 6.66C14.3903 6.66 14.9078 6.7675 15.3078 6.9825C15.7078 7.1975 16.0178 7.47 16.2378 7.8C16.4628 8.13 16.6228 8.475 16.7178 8.835C16.8128 9.19 16.8703 9.515 16.8903 9.81C16.9103 10.105 16.9203 10.32 16.9203 10.455V15H14.8503ZM9.31527 15V6.9H11.1303V9.585H11.3853V15H9.31527ZM22.4849 15.225C21.6549 15.225 20.9224 15.0475 20.2874 14.6925C19.6574 14.3325 19.1624 13.84 18.8024 13.215C18.4474 12.585 18.2699 11.865 18.2699 11.055C18.2699 10.17 18.4449 9.4 18.7949 8.745C19.1449 8.09 19.6274 7.5825 20.2424 7.2225C20.8574 6.8575 21.5649 6.675 22.3649 6.675C23.2149 6.675 23.9374 6.875 24.5324 7.275C25.1274 7.675 25.5674 8.2375 25.8524 8.9625C26.1374 9.6875 26.2374 10.54 26.1524 11.52H24.1349V10.77C24.1349 9.945 24.0024 9.3525 23.7374 8.9925C23.4774 8.6275 23.0499 8.445 22.4549 8.445C21.7599 8.445 21.2474 8.6575 20.9174 9.0825C20.5924 9.5025 20.4299 10.125 20.4299 10.95C20.4299 11.705 20.5924 12.29 20.9174 12.705C21.2474 13.115 21.7299 13.32 22.3649 13.32C22.7649 13.32 23.1074 13.2325 23.3924 13.0575C23.6774 12.8825 23.8949 12.63 24.0449 12.3L26.0849 12.885C25.7799 13.625 25.2974 14.2 24.6374 14.61C23.9824 15.02 23.2649 15.225 22.4849 15.225ZM19.7999 11.52V10.005H25.1699V11.52H19.7999ZM29.2779 15L26.8029 6.885L28.7979 6.9L30.2679 11.73L31.7604 6.9H33.4554L34.9479 11.73L36.4179 6.9H38.4129L35.9379 15H34.3779L32.6079 9.72L30.8379 15H29.2779Z" fill="white"/>
</g>
<defs>
<clipPath id="clip0_5401_18050">
<rect width="46" height="26" fill="white"/>
</clipPath>
</defs>
</svg>
