<svg width="110" height="48" viewBox="0 0 110 48" fill="none" xmlns="http://www.w3.org/2000/svg">
<path d="M0.522608 13.1423C0.240364 9.28497 3.29376 6 7.16141 6H28.6175C32.4852 6 35.5386 9.28498 35.2563 13.1423L33.7343 33.944C33.4797 37.4226 30.5833 40.1148 27.0955 40.1148H8.68349C5.19565 40.1148 2.29921 37.4226 2.04468 33.944L0.522608 13.1423Z" fill="#EC1040"/>
<path d="M74.5767 13.1423C74.2944 9.28497 77.3478 6 81.2155 6H102.672C106.539 6 109.593 9.28498 109.31 13.1423L107.788 33.944C107.534 37.4226 104.637 40.1148 101.15 40.1148H82.7376C79.2497 40.1148 76.3533 37.4226 76.0988 33.944L74.5767 13.1423Z" fill="#FB9700"/>
<path d="M39.7044 11.9303C40.0748 8.55533 42.926 6 46.3212 6H64.271C67.697 6 70.5635 8.60042 70.8961 12.0102L72.9256 32.8119C73.3073 36.7251 70.2322 40.1148 66.3005 40.1148H44.0381C40.0743 40.1148 36.9888 36.6722 37.4213 32.732L39.7044 11.9303Z" fill="#4AB424"/>
<path d="M20.7866 19.5288C20.8077 18.2219 20.7023 17.305 20.4704 16.778C20.2385 16.251 19.9645 15.9876 19.6483 15.9876C19.29 15.9876 18.9843 16.0929 18.7314 16.3037C18.4995 16.5145 18.3098 16.7991 18.1622 17.1574C18.0358 17.4947 17.9409 17.8952 17.8777 18.3589C17.8144 18.8016 17.7828 19.2759 17.7828 19.7818L17.8461 29.6152C17.8671 29.9103 17.8882 30.1948 17.9093 30.4689C17.9515 30.7429 18.0252 30.9853 18.1306 31.1961C18.2149 31.3858 18.3625 31.5334 18.5733 31.6388C18.8052 31.7231 19.037 31.7547 19.2689 31.7336C19.5008 31.7125 19.7221 31.6493 19.9329 31.5439C20.1437 31.4385 20.2807 31.2699 20.3439 31.038C20.4072 30.8483 20.4493 30.627 20.4704 30.374C20.4915 30.1211 20.5126 29.847 20.5336 29.5519L20.6601 25.7261L25.2764 25.6628L25.0867 31.1329C25.0656 31.8495 24.8865 32.5135 24.5492 33.1248C24.233 33.7361 23.8114 34.2631 23.2845 34.7058C22.7575 35.1484 22.1462 35.4857 21.4506 35.7176C20.776 35.9705 20.0804 36.097 19.3638 36.097H19.0792C18.0042 36.1391 17.1188 35.981 16.4232 35.6227C15.7487 35.2644 15.2323 34.8955 14.8739 34.5161C14.4313 34.0734 14.094 33.5886 13.8621 33.0616C13.6302 32.5346 13.4616 32.0287 13.3562 31.5439C13.2719 31.0591 13.2192 30.627 13.1981 30.2475C13.1981 29.8681 13.2087 29.5941 13.2297 29.4255L13.1349 19.7818C13.1349 18.8754 13.1981 18.0744 13.3246 17.3788C13.4722 16.6832 13.6513 16.0719 13.8621 15.5449C14.094 14.9968 14.3469 14.5331 14.621 14.1537C14.9161 13.7532 15.2006 13.4159 15.4747 13.1419C16.1703 12.4673 16.9713 11.9931 17.8777 11.719C18.7841 11.4239 19.6799 11.3396 20.5653 11.4661C21.4506 11.5715 22.2832 11.8877 23.0631 12.4147C23.8431 12.9416 24.4543 13.6794 24.897 14.628C25.1289 15.2182 25.2659 15.7557 25.308 16.2405C25.3713 16.7042 25.4029 16.9993 25.4029 17.1258L25.4345 21.837L20.7866 21.8686V19.5288Z" fill="#B21033"/>
<path d="M58.9469 11.7191H63.5632V35.5911H58.9469V27.971H54.5835L54.5203 35.6227L49.904 35.5911L50.1886 11.6874L54.8365 11.7507L54.6468 23.3863H58.9469V11.7191Z" fill="#17832F"/>
<path d="M95.716 11.6874L100.49 11.7506L96.4432 29.0776V35.5594H91.7953V28.2872L86.1039 11.7822L90.8467 11.5925L93.8189 19.9082L95.716 11.6874Z" fill="#EB712C"/>
<path d="M19.2591 18.5288C19.2907 15.9361 18.7532 14.9875 18.1208 14.9875C16.698 14.9875 16.2553 16.7898 16.2553 18.7817L16.3185 28.6151C16.3502 29.2159 16.3818 29.785 16.6031 30.1961C16.9825 30.9549 18.5318 30.9233 18.8164 30.038C18.9429 29.6585 18.9745 29.1526 19.0061 28.5519L19.1326 24.726L23.7489 24.6628L23.5592 30.1328C23.496 33.0101 20.7135 35.0969 17.8362 35.0969C17.7098 35.0969 17.6465 35.0969 17.5517 35.0969C15.4016 35.1918 14.0736 34.2749 13.3464 33.516C11.6074 31.7454 11.639 29.0894 11.7022 28.4254L11.6074 18.7817C11.6074 15.1772 12.8405 13.2169 13.9471 12.1418C16.7296 9.42264 21.5988 9.83368 23.3695 13.6279C23.8121 14.7978 23.8754 15.8728 23.8754 16.1258L23.907 20.837L19.2591 20.8686V18.5288Z" fill="white"/>
<path d="M57.4194 10.7191H62.0357V34.5911H57.4194V26.971H53.056L52.9928 34.6227L48.3765 34.5911L48.661 10.6874L53.309 10.7507L53.1193 22.3863H57.4194V10.7191Z" fill="white"/>
<path d="M94.1884 10.6874L98.9628 10.7506L94.9157 28.0776V34.5594H90.2677V27.2872L84.5764 10.7822L89.3192 10.5925L92.2913 18.9082L94.1884 10.6874Z" fill="white"/>
</svg>
