<svg width="83" height="31" viewBox="0 0 83 31" fill="none" xmlns="http://www.w3.org/2000/svg">
<path d="M58.7432 0.625732H65.1959L64.8048 29.8779L59.0561 29.7997L59.2907 13.6093L53.4246 26.8276L48.6144 15.0563L49.0055 29.7997L43.2176 29.9952L42.4746 0.625732H48.81L53.6202 12.2797L58.7432 0.625732Z" fill="#323637"/>
<path d="M34.0374 0.351929L37.1268 30.1516L31.2999 30.3863L30.8697 26.2409H25.1991L24.3388 30.3863L18.59 30.1907L24.5343 0.351929H34.0374ZM30.3222 20.4921L28.9534 7.27391L26.3724 20.4921H30.3222Z" fill="#323637"/>
<path d="M76.3573 5.9443L76.4746 12.4361H81.4803V18.1849H76.5528L76.631 24.2465H82.6535V29.9952H70.9605L70.5694 0L82.7708 0.430181L82.5753 6.17894L76.3573 5.9443Z" fill="#323637"/>
<path d="M9.38573 8.99471C9.38573 7.97793 9.21627 7.20882 8.87734 6.68739C8.56448 6.16596 8.19948 5.90524 7.78234 5.90524C7.39126 5.87917 7.00019 6.11382 6.60912 6.60917C6.21805 7.10453 5.95733 7.87364 5.82697 8.9165C5.8009 9.15114 5.77483 9.39882 5.74876 9.65954C5.74876 9.89418 5.74876 10.1549 5.74876 10.4417L5.86608 21.9783C5.84001 22.3955 5.82697 22.7865 5.82697 23.1515C5.85305 23.5165 5.90519 23.8424 5.9834 24.1292C6.08769 24.3899 6.23108 24.5985 6.41358 24.7549C6.59608 24.8853 6.84376 24.9244 7.15662 24.8722H7.39126H7.54769C7.88662 24.9244 8.1343 24.9114 8.29073 24.8331C8.47323 24.7288 8.59055 24.5855 8.64269 24.403C8.72091 24.1944 8.76002 23.9597 8.76002 23.699C8.76002 23.4383 8.77305 23.1515 8.79912 22.8387L8.87734 21.5872H7.54769V15.8776H14.8607L14.5088 24.4812C14.4566 25.6283 14.222 26.5539 13.8048 27.2578C13.3877 27.9617 12.9575 28.5092 12.5143 28.9003C11.8625 29.4999 11.0804 29.9431 10.1679 30.2299C9.25537 30.5428 8.30376 30.6862 7.31305 30.6601C6.3484 30.6601 5.40983 30.4906 4.49733 30.1517C3.58483 29.8389 2.80268 29.3435 2.1509 28.6656C1.6034 28.1181 1.18625 27.5185 0.899466 26.8667C0.61268 26.2149 0.404108 25.5892 0.273751 24.9896C0.169465 24.3899 0.104286 23.8555 0.0782145 23.3862C0.0782145 22.9169 0.0782145 22.578 0.0782145 22.3694L0 10.4417C0 9.32061 0.0782145 8.32989 0.234643 7.46953C0.417144 6.60917 0.638751 5.8531 0.899466 5.20131C1.18625 4.52346 1.49911 3.94988 1.83804 3.4806C2.20304 2.98524 2.54197 2.5681 2.85483 2.22917C3.66304 1.47309 4.57554 0.912555 5.59233 0.547555C6.60912 0.156483 7.70412 5.47301e-05 8.87734 0.0782697C9.78984 0.130412 10.6241 0.352019 11.3802 0.743091C12.1623 1.13416 12.8272 1.65559 13.3747 2.30738C13.9222 2.9331 14.3523 3.6631 14.6652 4.49738C14.9781 5.33167 15.1345 6.2181 15.1345 7.15667L15.1736 11.9669L9.42484 12.006L9.38573 8.99471Z" fill="#323637"/>
</svg>
