<svg width="32" height="32" viewBox="0 0 32 32" fill="none" xmlns="http://www.w3.org/2000/svg">
<path d="M14.3047 0.719337C14.5009 0.53065 14.9052 0.292331 15.2032 0.189817C15.501 0.0873027 15.8396 0.00194121 15.9554 0.000114228C16.4143 -0.0070922 17.2507 0.327856 17.6329 0.671836C17.8737 0.888638 18.903 2.40909 20.2292 4.50687L22.4265 7.98281L26.4683 9.03749C31.029 10.2276 31.2112 10.3048 31.7116 11.2593C32.0614 11.9265 32.0974 12.9079 31.7955 13.5469C31.6901 13.7702 30.4316 15.3804 28.9988 17.125L26.3939 20.2971L26.6508 24.433C26.7921 26.7076 26.8788 28.7265 26.8437 28.9192C26.6931 29.7458 25.9698 30.6026 25.2059 30.8594C24.3062 31.1617 24.0557 31.0952 19.8934 29.4484L15.9949 27.906L12.1135 29.4401C7.88963 31.1096 7.58649 31.1857 6.67462 30.8067C5.92959 30.497 5.30059 29.7159 5.15493 28.9192C5.11958 28.7265 5.20576 26.7044 5.34623 24.4258L5.6017 20.2829L2.98261 17.0905C1.54207 15.3347 0.284472 13.7278 0.187907 13.5195C-0.0970027 12.9052 -0.0532012 11.9086 0.287223 11.2593C0.787776 10.3047 0.969396 10.2278 5.5255 9.04134L9.56313 7.98991L11.7555 4.52626C12.9614 2.62123 14.1084 0.908125 14.3047 0.719337Z" fill="url(#paint0_linear_6170_394)"/>
<path fill-rule="evenodd" clip-rule="evenodd" d="M15.2032 0.189817C14.9052 0.292331 14.5009 0.53065 14.3047 0.719337C14.1084 0.908125 12.9614 2.62123 11.7555 4.52626L9.56313 7.98991L5.5255 9.04134C0.969396 10.2278 0.787776 10.3047 0.287223 11.2593C-0.0532012 11.9086 -0.0970027 12.9052 0.187907 13.5195C0.284472 13.7278 1.54207 15.3347 2.98261 17.0905L5.6017 20.2829L5.34623 24.4258C5.20576 26.7044 5.11958 28.7265 5.15493 28.9192C5.30059 29.7159 5.92959 30.497 6.67462 30.8067C7.58649 31.1857 7.88963 31.1096 12.1135 29.4401L15.9949 27.906L19.8934 29.4484C24.0557 31.0952 24.3062 31.1617 25.2059 30.8594C25.9698 30.6026 26.6931 29.7458 26.8437 28.9192C26.8788 28.7265 26.7921 26.7076 26.6508 24.433L26.3939 20.2971L28.9988 17.125C30.4316 15.3804 31.6901 13.7702 31.7955 13.5469C32.0974 12.9079 32.0614 11.9265 31.7116 11.2593C31.2112 10.3048 31.029 10.2276 26.4683 9.03749L22.4265 7.98281L20.2292 4.50687C18.903 2.40909 17.8737 0.888638 17.6329 0.671836C17.2507 0.327856 16.4143 -0.0070922 15.9554 0.000114228C15.8396 0.00194121 15.501 0.0873027 15.2032 0.189817ZM16.0046 2.03288C15.9568 2.04706 15.9071 2.06278 15.8596 2.07902C15.8566 2.08026 15.8463 2.08456 15.8289 2.0929C15.8006 2.10649 15.7664 2.12458 15.7313 2.14524C15.7267 2.148 15.7221 2.15069 15.7178 2.15333C15.6918 2.18888 15.6606 2.23211 15.624 2.28362C15.4849 2.4796 15.2967 2.75423 15.0705 3.092C14.6198 3.76514 14.041 4.65499 13.4454 5.59593C13.4454 5.59593 13.4454 5.59592 13.4454 5.59593L10.8309 9.72647L6.02951 10.9768C3.66762 11.5918 2.67163 11.8646 2.16535 12.079C2.14059 12.0894 2.11956 12.0988 2.10188 12.1069C2.08993 12.1288 2.07558 12.1555 2.05864 12.1878C2.05879 12.1875 2.05886 12.1873 2.05864 12.1878C2.05691 12.1916 2.04427 12.2199 2.03077 12.2751C2.01572 12.3367 2.00461 12.4113 2.00114 12.4903C1.99859 12.5483 2.00057 12.599 2.00461 12.6394C2.02332 12.665 2.04455 12.6939 2.06846 12.7261C2.2081 12.9141 2.40777 13.1745 2.65628 13.4921C3.15148 14.1248 3.81615 14.9533 4.52882 15.822L7.64626 19.6217L7.34244 24.5489C7.34244 24.5489 7.34244 24.5489 7.34244 24.5489C7.2728 25.6785 7.21687 26.7407 7.18284 27.5398C7.16576 27.9407 7.15458 28.2666 7.14971 28.4983C7.14861 28.5508 7.14788 28.596 7.14746 28.6342C7.20639 28.7624 7.34602 28.9198 7.44221 28.9598C7.46858 28.9708 7.49022 28.9795 7.50765 28.9863C7.5422 28.9802 7.59341 28.9698 7.66469 28.9519C8.22293 28.8116 9.20228 28.4402 11.3783 27.5801L15.9953 25.7554L20.6292 27.5887C22.7706 28.4359 23.7346 28.8053 24.2865 28.9518C24.3773 28.976 24.4372 28.9883 24.4727 28.9944C24.492 28.9886 24.5184 28.9803 24.5532 28.9688C24.5588 28.9655 24.5698 28.9589 24.5854 28.9475C24.6246 28.9189 24.6751 28.8737 24.7265 28.8128C24.7777 28.7522 24.8179 28.69 24.8451 28.636C24.8471 28.6319 24.8491 28.628 24.8509 28.6242C24.8504 28.5885 24.8497 28.5471 24.8487 28.4997C24.8438 28.2684 24.8325 27.943 24.8152 27.5427C24.7809 26.7449 24.7247 25.6846 24.6546 24.5569L24.349 19.6358L27.4532 15.8557C28.1615 14.9932 28.8241 14.1672 29.3192 13.5338C29.5676 13.2159 29.7677 12.9545 29.9082 12.7647C29.9408 12.7207 29.9686 12.6827 29.9918 12.6505C29.9979 12.6076 30.0017 12.5517 29.9993 12.487C29.9966 12.4126 29.9863 12.3422 29.9719 12.283C29.9571 12.2226 29.9424 12.1919 29.9403 12.188C29.9233 12.1555 29.9088 12.1287 29.8969 12.1068C29.8789 12.0985 29.8575 12.0889 29.8322 12.0782C29.325 11.8633 28.3274 11.5896 25.9634 10.9727L21.1578 9.71871L18.5386 5.57557C17.8824 4.53744 17.3055 3.65164 16.8678 3.00519C16.6481 2.68053 16.4713 2.4279 16.3414 2.25105C16.3098 2.20789 16.284 2.17366 16.2638 2.14714C16.2141 2.11988 16.1503 2.08934 16.0794 2.06095C16.0529 2.05032 16.0278 2.04098 16.0046 2.03288ZM30.0692 12.5403C30.0755 12.5302 30.0792 12.5247 30.0794 12.5246C30.0796 12.5245 30.0765 12.5295 30.0692 12.5403ZM24.8502 28.7932C24.85 28.7927 24.8502 28.7835 24.8511 28.7675C24.8508 28.7857 24.8503 28.7936 24.8502 28.7932ZM7.14838 28.7922C7.14824 28.7927 7.14779 28.7847 7.14744 28.7664C7.14835 28.7824 7.14852 28.7917 7.14838 28.7922ZM1.89872 12.4887C1.8991 12.489 1.90352 12.4956 1.91083 12.5073C1.902 12.4942 1.89834 12.4884 1.89872 12.4887ZM15.8034 2.04048C15.8033 2.04073 15.8001 2.04476 15.7942 2.0518C15.8005 2.04375 15.8035 2.04024 15.8034 2.04048Z" fill="url(#paint1_linear_6170_394)"/>
<path d="M11.5747 10.4126L13.0819 8.06622C13.3509 7.64755 15.3038 4.01034 15.9694 4C16.6353 3.9897 18.6573 7.66301 18.9076 8.05308L20.4183 10.4077L23.197 11.1222C26.3325 11.9284 29 12.5 29 12.5C29 12.5 26.8323 14.3266 24.9367 16.6009L23.1458 18.7497L23.3224 21.5514C23.4196 23.0923 23.5 27 23.5 27C23.5 27 23.6762 26.898 18.6767 24.949C13.6773 22.9999 15.9965 23.9041 15.9965 23.9041L13.328 24.9433L8.5 27.5C8.5 27.5 8.57897 23.0901 8.67554 21.5466L8.85118 18.74L7.05056 16.5775C6.82328 16.3045 3.5 12.5 3.5 12.5C3.5 12.5 5.66647 11.9285 8.7988 11.1248L11.5747 10.4126Z" fill="url(#paint2_linear_6170_394)"/>
<path d="M16 15.5V4C14.8 4 12.8333 8.83333 12 10.5L16 15.5Z" fill="url(#paint3_linear_6170_394)"/>
<defs>
<linearGradient id="paint0_linear_6170_394" x1="15.9983" y1="0.749406" x2="15.9983" y2="32.2237" gradientUnits="userSpaceOnUse">
<stop stop-color="#FFE400"/>
<stop offset="0.25" stop-color="#F58C25"/>
<stop offset="0.58" stop-color="#FD5C01"/>
<stop offset="1" stop-color="#FF5301"/>
</linearGradient>
<linearGradient id="paint1_linear_6170_394" x1="15.5986" y1="-0.967114" x2="17.9568" y2="33.854" gradientUnits="userSpaceOnUse">
<stop stop-color="#E07709"/>
<stop offset="0.54" stop-color="#EE530B"/>
<stop offset="0.905" stop-color="#B1420E"/>
</linearGradient>
<linearGradient id="paint2_linear_6170_394" x1="5.93796" y1="4.98178" x2="32.1951" y2="52.2189" gradientUnits="userSpaceOnUse">
<stop stop-color="#FFE400"/>
<stop offset="0.5" stop-color="#FF9000"/>
<stop offset="1" stop-color="#FF8900"/>
</linearGradient>
<linearGradient id="paint3_linear_6170_394" x1="12.6291" y1="7.79176" x2="16.0367" y2="12.8742" gradientUnits="userSpaceOnUse">
<stop stop-color="white" stop-opacity="0.47"/>
<stop offset="1" stop-color="white" stop-opacity="0"/>
</linearGradient>
</defs>
</svg>
