<svg width="260" height="260" viewBox="0 0 260 260" fill="none" xmlns="http://www.w3.org/2000/svg">
<path d="M3.25508 34.8253C2.03718 18.1774 15.2153 4 31.9077 4H229.092C245.785 4 258.963 18.1775 257.745 34.8253L243.879 224.367C242.78 239.38 230.279 251 215.226 251H45.774C30.7206 251 18.2197 239.38 17.1214 224.367L3.25508 34.8253Z" fill="#EC1040"/>
<path d="M151.368 101.856C151.52 92.3829 150.757 85.7363 149.08 81.9165C147.402 78.0967 145.419 76.1867 143.131 76.1867C140.538 76.1867 138.326 76.9507 136.496 78.4786C134.818 80.0066 133.446 82.0693 132.378 84.6668C131.463 87.1115 130.776 90.0146 130.319 93.376C129.861 96.5847 129.632 100.023 129.632 103.69L130.09 174.968C130.243 177.107 130.395 179.17 130.548 181.156C130.853 183.142 131.386 184.899 132.149 186.427C132.759 187.802 133.827 188.872 135.352 189.636C137.03 190.247 138.708 190.476 140.386 190.323C142.063 190.171 143.665 189.712 145.19 188.948C146.716 188.184 147.707 186.962 148.165 185.281C148.622 183.906 148.927 182.302 149.08 180.468C149.232 178.635 149.385 176.648 149.537 174.509L150.452 146.777L183.856 146.319L182.483 185.969C182.331 191.164 181.034 195.977 178.594 200.408C176.306 204.839 173.255 208.659 169.442 211.867C165.629 215.076 161.206 217.521 156.172 219.201C151.291 221.035 146.258 221.952 141.072 221.952H139.013C131.234 222.257 124.828 221.111 119.794 218.514C114.913 215.916 111.177 213.243 108.584 210.492C105.38 207.284 102.94 203.769 101.262 199.949C99.5844 196.13 98.3642 192.463 97.6015 188.948C96.9914 185.434 96.6101 182.302 96.4576 179.552C96.4576 176.801 96.5338 174.815 96.6864 173.593L96 103.69C96 97.1195 96.4576 91.3133 97.3728 86.2711C98.4404 81.2289 99.7369 76.7979 101.262 72.9781C102.94 69.0055 104.77 65.644 106.753 62.8937C108.889 59.9906 110.948 57.5459 112.931 55.5596C117.964 50.6702 123.76 47.2324 130.319 45.2461C136.877 43.107 143.36 42.4958 149.766 43.4125C156.172 44.1765 162.197 46.4684 167.841 50.2883C173.484 54.1081 177.907 59.4559 181.111 66.3316C182.788 70.6098 183.78 74.506 184.085 78.0203C184.542 81.3817 184.771 83.5208 184.771 84.4376L185 118.587L151.368 118.816V101.856Z" fill="#B21033"/>
<path d="M140.368 95.5273C140.52 86.107 139.757 79.4976 138.08 75.6991C136.402 71.9006 134.419 70.0013 132.131 70.0013C129.538 70.0013 127.326 70.761 125.496 72.2804C123.818 73.7999 122.446 75.851 121.378 78.434C120.463 80.8651 119.776 83.7519 119.319 87.0946C118.861 90.2853 118.632 93.704 118.632 97.3505L119.09 168.23C119.243 170.358 119.395 172.409 119.548 174.384C119.853 176.359 120.386 178.107 121.149 179.626C121.759 180.993 122.827 182.057 124.352 182.817C126.03 183.424 127.708 183.652 129.386 183.5C131.063 183.349 132.665 182.893 134.19 182.133C135.716 181.373 136.707 180.158 137.165 178.486C137.622 177.119 137.927 175.524 138.08 173.7C138.232 171.877 138.385 169.902 138.537 167.775L139.452 140.198L172.856 139.742L171.483 179.17C171.331 184.336 170.034 189.122 167.594 193.528C165.306 197.935 162.255 201.733 158.442 204.924C154.629 208.115 150.206 210.546 145.172 212.217C140.291 214.04 135.258 214.952 130.072 214.952H128.013C120.234 215.256 113.828 214.116 108.794 211.533C103.913 208.95 100.177 206.291 97.5835 203.557C94.3805 200.366 91.94 196.871 90.2622 193.073C88.5844 189.274 87.3642 185.628 86.6015 182.133C85.9914 178.638 85.6101 175.524 85.4576 172.789C85.4576 170.054 85.5338 168.079 85.6864 166.863L85 97.3505C85 90.8171 85.4576 85.0434 86.3728 80.0294C87.4404 75.0154 88.7369 70.6091 90.2622 66.8106C91.94 62.8602 93.7704 59.5175 95.7532 56.7826C97.8886 53.8957 99.9477 51.4647 101.931 49.4895C106.964 44.6274 112.76 41.2087 119.319 39.2335C125.877 37.1064 132.36 36.4986 138.766 37.4102C145.172 38.1699 151.197 40.449 156.841 44.2475C162.484 48.046 166.907 53.3639 170.111 60.2012C171.788 64.4555 172.78 68.33 173.085 71.8246C173.542 75.1673 173.771 77.2945 173.771 78.2061L174 112.165L140.368 112.393V95.5273Z" fill="white"/>
</svg>
