<?xml version="1.0" standalone="no"?>
<!DOCTYPE svg PUBLIC "-//W3C//DTD SVG 20010904//EN"
 "http://www.w3.org/TR/2001/REC-SVG-20010904/DTD/svg10.dtd">
<svg version="1.0" xmlns="http://www.w3.org/2000/svg"
 width="700.000000pt" height="700.000000pt" viewBox="0 0 700.000000 700.000000"
 preserveAspectRatio="xMidYMid meet">
<metadata>
Created by potrace 1.14, written by Peter Selinger 2001-2017
</metadata>
<g transform="translate(0.000000,700.000000) scale(0.100000,-0.100000)"
fill="#000000" stroke="none">
<path d="M700 6874 c-271 -58 -491 -256 -577 -519 -20 -61 -27 -107 -30 -195
-3 -86 42 -746 181 -2655 102 -1397 190 -2571 196 -2610 47 -307 284 -560 589
-632 72 -17 207 -18 2461 -18 2690 0 2436 -8 2615 80 158 77 273 192 350 350
24 50 51 119 60 155 22 94 398 5227 391 5340 -7 113 -27 187 -81 295 -94 190
-252 323 -470 397 l-70 23 -2775 2 c-2352 1 -2785 -1 -2840 -13z m3173 -907
c388 -102 675 -390 763 -767 36 -154 44 -284 44 -757 l0 -463 -268 0 c-148 0
-350 -3 -449 -7 l-181 -6 -5 389 c-6 471 -19 557 -99 675 -41 61 -78 82 -140
80 -165 -3 -270 -140 -320 -420 -20 -112 -20 -147 -19 -961 1 -916 7 -1304 22
-1418 22 -172 97 -252 240 -252 65 0 144 26 184 61 66 59 77 140 96 719 6 206
14 378 18 381 3 4 205 9 449 12 l442 6 0 -87 c-1 -48 -9 -310 -20 -582 -20
-514 -25 -559 -72 -680 -112 -287 -342 -498 -659 -606 -144 -49 -237 -65 -409
-71 -321 -11 -512 40 -734 198 -197 141 -324 329 -402 598 -46 159 -52 257
-55 986 -9 1649 -8 1701 42 1915 72 312 195 544 394 744 168 170 363 272 620
326 134 29 382 22 518 -13z"/>
</g>
</svg>
