<svg width="40" height="40" viewBox="0 0 40 40" fill="none" xmlns="http://www.w3.org/2000/svg">
<g clip-path="url(#clip0_5401_38273)">
<path fill-rule="evenodd" clip-rule="evenodd" d="M10.16 4.36378C6.20698 5.01815 3.00971 8.10867 2.21284 12.0455C1.6535 14.809 2.31309 17.6448 4.04712 19.9312C4.21869 20.1575 4.77103 20.763 5.27448 21.2768L6.18991 22.2111L5.93654 22.4768C5.17142 23.2795 4.83981 24.2902 5.0137 25.2892C5.25172 26.6557 6.34516 27.7118 7.76849 27.9497C8.01137 27.9904 8.01892 28.001 8.09983 28.4184C8.34676 29.6919 9.46481 30.8038 10.6929 30.9971C10.8916 31.0284 11.064 31.0662 11.0759 31.0812C11.0878 31.0961 11.1493 31.323 11.2125 31.5855C11.3737 32.2553 11.5596 32.6031 12.0194 33.0946C12.9308 34.0688 14.2798 34.3896 15.471 33.9155C15.6954 33.8262 15.8845 33.7598 15.8911 33.7679C15.8977 33.776 15.9715 33.9181 16.0551 34.0838C16.2513 34.4728 16.7353 34.988 17.1611 35.2613C18.0908 35.8579 19.382 35.9007 20.4274 35.3695C21.0118 35.0727 22.3903 33.679 22.819 32.9518C22.8888 32.8334 22.9349 32.8601 23.3726 33.2729C24.2273 34.0789 24.8564 34.3285 25.9245 34.2856C26.5139 34.2619 26.6414 34.232 27.1172 34.0061C27.813 33.6757 28.2987 33.1939 28.6296 32.5059C28.766 32.2224 28.9014 31.8247 28.9305 31.6219L28.9836 31.2534L29.4362 31.1699C30.2411 31.0213 30.9836 30.5502 31.4627 29.8839C31.7452 29.4909 32.0306 28.7574 32.0328 28.4182C32.0341 28.2323 32.0646 28.1903 32.2228 28.1571C32.8459 28.0265 33.0593 27.961 33.4012 27.7955C33.6106 27.6941 33.9681 27.4259 34.1956 27.1993C34.826 26.5715 35.12 25.8613 35.12 24.9664C35.12 24.0538 34.7974 23.2974 34.1292 22.6427C33.9576 22.4745 33.8171 22.3083 33.8171 22.2733C33.8171 22.2384 34.2441 21.7715 34.766 21.2359C36.4292 19.529 37.2557 18.1323 37.7177 16.2477C37.7982 15.9189 37.884 15.4165 37.9081 15.1311C37.9322 14.8458 37.9782 14.5961 38.0103 14.5763C38.0423 14.5564 38.0686 14.2471 38.0686 13.8888C38.0686 13.472 38.0439 13.2527 38 13.2798C37.9585 13.3054 37.9314 13.2098 37.9314 13.0374C37.9314 12.6473 37.6854 11.4689 37.4738 10.8455C37.2166 10.0881 36.547 8.82812 36.049 8.16455C34.9317 6.67587 33.2114 5.39564 31.5144 4.79009C30.4357 4.40513 29.7147 4.29692 28.2286 4.29692C27.0419 4.29692 26.7609 4.31845 26.1427 4.45683C24.0884 4.91674 22.6793 5.74645 20.8925 7.54823C20.4405 8.00403 20.0389 8.37692 20 8.37692C19.9611 8.37692 19.5595 8.00403 19.1075 7.54823C17.3275 5.75324 15.9506 4.94101 13.8689 4.45806C13.0839 4.27594 11.0091 4.22314 10.16 4.36378ZM10.4106 6.42455C7.68086 6.94158 5.38735 8.89834 4.5457 11.4283C4.18138 12.5236 4.1039 13.0727 4.1449 14.2691C4.17412 15.1213 4.21553 15.4547 4.34986 15.9198C4.8287 17.5774 5.40991 18.4981 6.91238 19.98L7.65713 20.7144L8.23999 20.1657C9.39487 19.0787 10.5123 18.7795 11.7873 19.216C12.4712 19.4502 13.1152 19.9861 13.4873 20.6307C13.5917 20.8117 13.6861 20.9706 13.6969 20.9838C13.7078 20.9971 13.9086 20.9415 14.1432 20.8603C16.0004 20.2175 17.9444 21.2788 18.3883 23.1779C18.4952 23.6351 18.4467 24.4885 18.2903 24.9026C18.0924 25.4267 18.0903 25.4465 18.2265 25.4958C18.4826 25.5886 19.1323 26.0838 19.3444 26.3478C19.6586 26.7386 19.9411 27.344 20.0274 27.8109C20.0686 28.0339 20.1129 28.2269 20.1257 28.2398C20.1386 28.2526 20.3315 28.2964 20.5545 28.337C21.4293 28.4963 21.7085 28.6983 23.4971 30.4665C24.4023 31.3614 25.2297 32.1264 25.3359 32.1666C26.0116 32.4227 26.7492 32.0046 26.8616 31.3016C26.9524 30.734 26.8746 30.6285 24.8984 28.6398C23.8866 27.6215 23.0263 26.7015 22.9865 26.5953C22.799 26.0943 23.011 25.5494 23.4822 25.3213C24.1458 25.0001 24.2614 25.0739 26.3289 27.1381C27.2983 28.1061 28.184 28.9555 28.2971 29.0258C28.5939 29.2101 29.1373 29.1975 29.4356 28.9992C29.7022 28.822 29.9771 28.3298 29.9771 28.0298C29.9771 27.6015 29.7136 27.2751 27.9507 25.5198C26.9849 24.5581 26.1509 23.6879 26.0974 23.5861C25.7939 23.0088 26.1968 22.2194 26.849 22.1135C27.3318 22.0352 27.4812 22.1496 29.426 24.0861C30.448 25.1036 31.3623 25.9659 31.4579 26.0022C31.7734 26.1222 32.2691 26.081 32.5213 25.914C32.8638 25.6869 33.0906 25.1899 33.0315 24.7957C32.9688 24.3776 32.8534 24.2545 27.494 18.8903L23.0565 14.4488L21.3568 16.129C19.5507 17.9142 19.3539 18.0624 18.4942 18.2833C17.69 18.49 16.6405 18.3761 15.9015 18.002C15.7043 17.9022 15.3239 17.6011 15.0563 17.333C14.4694 16.7448 14.266 16.2976 14.2211 15.4956C14.1867 14.882 14.3581 14.2573 14.6841 13.8071C14.792 13.6582 15.6995 12.7202 16.7008 11.7225L18.5213 9.90874L17.6149 8.98576C16.2257 7.57121 15.0899 6.89036 13.4514 6.49004C12.8055 6.33226 11.0928 6.29537 10.4106 6.42455ZM26.8809 6.42236C25.7815 6.63116 24.6826 7.09991 23.7513 7.75731C23.0774 8.23306 16.3604 14.9232 16.295 15.1838C16.1825 15.6321 16.5253 16.0571 17.1458 16.2383C17.5643 16.3606 17.9258 16.327 18.3092 16.1304C18.4471 16.0595 19.4086 15.1498 20.4457 14.1087C22.5076 12.0388 22.6937 11.8968 23.2426 11.9723C23.5631 12.0165 23.6011 12.0523 27.9057 16.3683C30.2928 18.7616 32.2706 20.7198 32.3009 20.7198C32.4262 20.7198 34.2914 18.7281 34.5931 18.2723C35.4469 16.9824 35.8743 15.5573 35.8743 13.9998C35.8743 10.355 33.5069 7.37516 29.9086 6.49073C29.27 6.33377 27.5517 6.29495 26.8809 6.42236ZM2.02502 13.9655C2.02523 14.3426 2.03675 14.4881 2.0506 14.2889C2.06452 14.0897 2.06438 13.7811 2.05032 13.6032C2.0362 13.4253 2.02488 13.5883 2.02502 13.9655ZM10.0877 21.3279C9.70207 21.5768 7.33677 23.9714 7.18653 24.2649C6.85039 24.922 7.27032 25.7555 8.00705 25.8937C8.52408 25.9907 8.65903 25.894 10.2718 24.2703C11.9217 22.6091 11.9647 22.5445 11.8084 21.964C11.6023 21.1987 10.7666 20.8898 10.0877 21.3279ZM14.7886 22.8392C14.6085 22.9231 13.7801 23.7059 12.3771 25.1177C10.5157 26.9909 10.2338 27.3021 10.1915 27.5298C10.0844 28.1081 10.2957 28.632 10.7258 28.8544C10.9952 28.9937 11.5166 28.9957 11.7767 28.8583C11.8869 28.8001 12.9389 27.786 14.1144 26.6047C15.9711 24.7388 16.2617 24.4187 16.3285 24.1655C16.5179 23.4467 15.9421 22.7042 15.2 22.7103C15.1246 22.7109 14.9394 22.7689 14.7886 22.8392ZM16.5071 27.3363C16.3084 27.4071 15.8681 27.8001 14.8396 28.8247C14.0711 29.5904 13.398 30.3002 13.344 30.4021C13.2899 30.504 13.2457 30.7539 13.2457 30.9576C13.2457 31.3974 13.4276 31.7128 13.7932 31.9071C14.0607 32.0492 14.6119 32.076 14.8445 31.9582C15.0672 31.8454 17.7635 29.1521 17.8868 28.9193C17.9452 28.8091 17.993 28.5752 17.993 28.3998C17.993 27.8736 17.7371 27.5091 17.2445 27.3334C16.9173 27.2167 16.8419 27.217 16.5071 27.3363ZM19.5886 30.4015C19.2949 30.5027 17.9272 31.8726 17.832 32.161C17.5972 32.8723 18.0532 33.5925 18.7828 33.6626C19.2563 33.7081 19.534 33.5439 20.2885 32.7726C20.9751 32.0706 21.0628 31.9176 21.0628 31.4226C21.0628 31.0004 20.8549 30.6798 20.4478 30.4741C20.1185 30.3077 19.9115 30.2902 19.5886 30.4015Z" fill="#323637"/>
</g>
<defs>
<clipPath id="clip0_5401_38273">
<rect width="36" height="36" fill="white" transform="translate(2 2)"/>
</clipPath>
</defs>
</svg>
