<svg width="40" height="40" viewBox="0 0 40 40" fill="none" xmlns="http://www.w3.org/2000/svg">
<g clip-path="url(#clip0_5401_38225)">
<path fill-rule="evenodd" clip-rule="evenodd" d="M9.72657 2.06912C9.25507 2.1294 8.93148 2.39052 8.78748 2.82691C8.59501 3.41018 8.56456 3.37226 11.9672 6.78622C13.6699 8.49461 15.0731 9.90341 15.0853 9.91699C15.0975 9.93049 15.0589 10.0355 14.9996 10.1503C14.8535 10.4329 14.8639 10.7623 15.0293 11.0867L15.1669 11.3567L8.83507 17.7012C2.86223 23.6861 2.49242 24.0706 2.31249 24.4832C1.5988 26.1197 2.22424 27.8605 3.80632 28.6416C4.28076 28.8758 4.41557 28.9104 4.95407 28.9362C5.62634 28.9683 6.00808 28.8961 6.59087 28.6267C6.92063 28.4742 7.81843 27.6052 13.2907 22.1418L19.6098 15.8329L19.9872 15.9893C20.3567 16.1424 20.3721 16.1433 20.7214 16.029C20.9176 15.9648 21.0888 15.9218 21.1018 15.9334C21.1147 15.9449 22.5076 17.3322 24.1971 19.0163C27.5034 22.3121 27.5006 22.3098 28.0865 22.1998C28.4335 22.1348 28.7928 21.7986 28.8871 21.451C28.9385 21.2612 28.9524 20.7071 28.9286 19.7944C28.8995 18.681 28.8596 18.2671 28.717 17.5953C28.2802 15.5374 27.2868 13.4764 25.9982 11.9542L25.5723 11.4512L25.752 11.0961C25.955 10.6947 25.9717 10.5256 25.8394 10.2093C25.7298 9.94764 21.0492 5.24035 20.807 5.14826C20.4954 5.02976 20.0684 5.07571 19.8024 5.25626L19.5511 5.42679L19.0557 5.00679C17.832 3.96958 16.0924 3.02275 14.5433 2.5507C13.0655 2.10039 11.0546 1.89934 9.72657 2.06912ZM14.4892 6.31088C15.6284 7.44739 16.5789 8.37721 16.6015 8.37721C16.6242 8.37721 16.9661 8.05102 17.3615 7.65235L18.0802 6.92748L17.7716 6.65497C16.4569 5.49379 14.3519 4.50115 12.7554 4.28933L12.4179 4.24455L14.4892 6.31088ZM18.8688 9.09721L17.3957 10.5715L18.8688 12.0458C19.679 12.8566 20.3732 13.5201 20.4116 13.5201C20.45 13.5201 21.1369 12.8641 21.938 12.0623L23.3945 10.6046L21.9025 9.11374C21.0819 8.29383 20.3951 7.62293 20.3762 7.62293C20.3573 7.62293 19.679 8.28636 18.8688 9.09721ZM10.4586 19.0229C7.05887 22.4267 4.24325 25.2789 4.20163 25.3613C4.09192 25.5784 4.10879 26.0461 4.23605 26.3143C4.35708 26.5693 4.67765 26.7995 5.00193 26.8644C5.52102 26.9682 5.37845 27.098 11.9259 20.5589C15.3297 17.1596 18.1145 14.3466 18.1145 14.308C18.1145 14.2397 16.7399 12.8344 16.6732 12.8344C16.6549 12.8344 13.8583 15.6192 10.4586 19.0229ZM23.3007 13.6481L22.5651 14.3861L24.6356 16.4573C25.7743 17.5964 26.721 18.5135 26.7393 18.4953C26.7932 18.4414 26.4804 17.1684 26.2581 16.5372C26.0119 15.8376 25.6131 15.028 25.1978 14.3842C24.8954 13.9154 24.2026 13.0128 24.0932 12.9452C24.062 12.926 23.7053 13.2422 23.3007 13.6481ZM20.7872 24.3745C20.4589 24.5481 20.3149 24.7814 18.7181 27.7263L17.9494 29.144L16.0262 30.0041C13.5383 31.1168 12.0847 31.7781 11.8919 31.885C11.8072 31.932 11.676 32.0915 11.6004 32.2397C11.4709 32.4936 11.4631 32.6429 11.4631 34.8672C11.4631 37.2 11.4647 37.2279 11.6174 37.4522C11.7023 37.5768 11.8587 37.7434 11.9652 37.8223L12.1589 37.9658H24.7316H37.3044L37.4938 37.8244C37.598 37.7466 37.7468 37.5978 37.8245 37.4937C37.9626 37.3089 37.9664 37.2176 37.9867 33.6236C38.0001 31.2607 37.9825 29.857 37.9376 29.7029C37.884 29.5191 37.2606 28.8586 35.2768 26.8835C33.154 24.7702 32.6441 24.2963 32.4545 24.2607C32.3272 24.2368 29.7169 24.2172 26.6538 24.2172H21.0847L20.7872 24.3745ZM20.9259 28.0377C20.4168 28.968 19.8974 29.9162 19.7717 30.1447C19.3862 30.8452 19.7596 30.6341 15.7488 32.4187L13.5545 33.395L13.5358 34.6347L13.5171 35.8743H24.6958H35.8745V33.1482V30.422L33.8341 28.3825L31.7937 26.3429H29.7884H27.7831V26.9125V27.4821L28.158 28.061C28.8512 29.1315 28.9488 29.325 28.9488 29.6289C28.9488 29.9666 28.8824 30.1047 28.2762 31.0282L27.8182 31.7258L27.7834 32.6858C27.7519 33.5496 27.7325 33.6682 27.589 33.8697C27.1327 34.51 26.152 34.4516 25.824 33.7647C25.6831 33.4697 25.6107 32.3204 25.6877 31.6014C25.7296 31.2101 25.7917 31.0669 26.2107 30.3954L26.6861 29.6335L26.3115 29.0528C25.7004 28.1055 25.7034 28.1143 25.6705 27.1829L25.6408 26.3429L23.7462 26.3445L21.8516 26.3461L20.9259 28.0377Z" fill="#323637"/>
</g>
<defs>
<clipPath id="clip0_5401_38225">
<rect width="36" height="36" fill="white" transform="translate(2 2)"/>
</clipPath>
</defs>
</svg>
