<svg width="40" height="40" viewBox="0 0 40 40" fill="none" xmlns="http://www.w3.org/2000/svg">
<g clip-path="url(#clip0_5401_38329)">
<path fill-rule="evenodd" clip-rule="evenodd" d="M29.0982 2.14654C28.8069 2.29067 28.7849 2.32756 27.702 4.49504C27.0969 5.70615 26.5937 6.70599 26.5838 6.71689C26.574 6.72772 25.5118 6.88948 24.2235 7.07627C22.9351 7.26306 21.7922 7.46178 21.6836 7.51794C21.2506 7.7419 21.0475 8.2387 21.1919 8.72075C21.2547 8.93024 21.62 9.32212 23.0187 10.6806C24.1959 11.824 24.7563 12.4139 24.7343 12.4864C24.7163 12.5457 24.5286 13.6254 24.3172 14.8857C23.9382 17.1452 23.9344 17.1814 24.0469 17.4762C24.2024 17.8831 24.5469 18.1142 24.998 18.1142C25.2879 18.1142 25.4684 18.0424 26.2678 17.6093C26.7804 17.3315 27.7321 16.8301 28.3827 16.495L29.5656 15.8856L30.5045 16.3656C31.0209 16.6296 31.9748 17.131 32.6243 17.4799C33.6362 18.0234 33.8516 18.1142 34.1287 18.1142C34.5561 18.1142 34.8637 17.9187 35.0537 17.5264L35.203 17.2179L34.7874 14.8032L34.3719 12.3885L36.1493 10.6399C38.0839 8.73673 38.0969 8.71828 37.9376 8.12638C37.863 7.84935 37.6826 7.63767 37.3939 7.48866C37.3058 7.4432 36.1832 7.25524 34.8992 7.07106C33.6152 6.88688 32.5569 6.72738 32.5475 6.71662C32.5381 6.70585 32.0336 5.70491 31.4262 4.4923C30.3355 2.3144 30.3184 2.2858 30.0249 2.14372C29.6505 1.96242 29.4689 1.96297 29.0982 2.14654ZM8.95977 2.82334C7.83205 2.95191 6.90325 3.26288 5.84821 3.86507C4.04766 4.89275 2.78622 6.58091 2.22427 8.71486C2.07616 9.27742 2.05051 9.52839 2.04503 10.4685C2.03927 11.4541 2.05799 11.6423 2.22921 12.3199C3.26519 16.4195 7.35904 18.9616 11.4283 18.0321C14.3188 17.3719 16.5406 15.1552 17.2564 12.2171C17.4251 11.5248 17.4639 10.0495 17.334 9.26075C17.0797 7.71694 16.395 6.33906 15.3261 5.22018C14.6139 4.47481 14.0458 4.0555 13.1405 3.60704C11.8587 2.97214 10.2688 2.67406 8.95977 2.82334ZM8.54834 4.99376C6.54448 5.42219 4.96034 6.8962 4.32249 8.92564C4.18178 9.37342 4.16087 9.57742 4.16087 10.5028C4.16087 11.4252 4.18206 11.6336 4.32139 12.0799C4.80633 13.633 5.84629 14.865 7.24549 15.5437C8.17429 15.9943 8.58949 16.0861 9.71406 16.0889C11.0146 16.0923 11.8225 15.8678 12.7943 15.2335C16.2097 13.0039 16.2177 8.05506 12.8096 5.78932C11.6308 5.00576 9.95529 4.69294 8.54834 4.99376ZM28.8441 6.87508C28.123 8.32736 27.9115 8.61028 27.4926 8.6842C27.3693 8.70594 26.6539 8.81531 25.903 8.92722C25.1521 9.03906 24.5198 9.1485 24.4979 9.17038C24.476 9.19225 24.9606 9.69028 25.5748 10.2771C26.189 10.8639 26.7364 11.4309 26.7914 11.5371C26.9355 11.8159 26.919 12.0633 26.6487 13.6717C26.5154 14.4655 26.4158 15.1246 26.4275 15.1362C26.4549 15.1636 27.3193 14.7249 28.3655 14.1526C29.4259 13.5725 29.6233 13.5465 30.2855 13.9C32.1625 14.9018 32.6744 15.1653 32.6979 15.1418C32.7126 15.127 32.6156 14.4655 32.4822 13.6717C32.2045 12.0187 32.1921 11.7819 32.3673 11.4945C32.4372 11.3799 32.9771 10.8245 33.567 10.2602C34.157 9.69591 34.6397 9.21426 34.6398 9.18985C34.6398 9.13822 34.1714 9.05435 32.7883 8.85838C32.2415 8.78089 31.7069 8.69963 31.6004 8.67783C31.2132 8.59863 30.9921 8.29527 30.2869 6.87508C29.9105 6.11716 29.5859 5.49707 29.5655 5.49707C29.5451 5.49707 29.2205 6.11716 28.8441 6.87508ZM5.19691 23.4255C4.59575 23.6418 4.1981 24.2457 4.19556 24.9459C4.19316 25.6059 4.31097 25.7935 5.44809 26.9413C6.0171 27.5157 6.46912 28.0009 6.45259 28.0195C6.43614 28.0381 5.51179 28.9722 4.39854 30.0952C2.1018 32.4121 2.04098 32.4956 2.03673 33.3371C2.03241 34.188 2.1483 34.3598 3.90921 36.1142C5.66149 37.86 5.82009 37.9665 6.66263 37.9628C7.50139 37.9589 7.58683 37.8967 9.9051 35.6003C11.0285 34.4875 11.9626 33.5636 11.9808 33.5471C11.9991 33.5306 12.484 33.9826 13.0584 34.5516C14.2002 35.6828 14.3943 35.8056 15.0389 35.8056C15.5342 35.8056 15.8733 35.6719 16.2099 35.344C16.6911 34.8751 16.68 35.0154 16.6588 29.6968L16.6398 24.9371L16.4719 24.596C16.2579 24.161 15.8387 23.7418 15.4037 23.5278L15.0626 23.3599L10.2626 23.3448C6.30091 23.3324 5.41621 23.3465 5.19691 23.4255ZM22.9154 23.6509C22.7842 23.7172 22.6067 23.8762 22.5211 24.0044L22.3655 24.2374L22.3658 30.7587C22.366 37.1772 22.3682 37.2835 22.5043 37.5068C22.5842 37.6377 22.7652 37.7893 22.9326 37.8653C23.2118 37.992 23.4591 37.997 29.5719 37.9984L35.921 37.9999L36.216 37.8439C36.8066 37.5317 36.7655 38.0594 36.7655 30.7816C36.7655 23.7141 36.7852 24.0443 36.3447 23.7301L36.1141 23.5656L29.6341 23.548C23.5691 23.5316 23.1388 23.5381 22.9154 23.6509ZM7.84322 26.3941C8.39563 26.9509 8.88057 27.4932 8.92082 27.5992C9.01559 27.8483 9.01435 28.2316 8.91829 28.4216C8.87659 28.504 7.77403 29.6433 6.46816 30.9533L4.09374 33.3353L4.50386 33.7577C4.94594 34.213 6.10644 35.3693 6.45349 35.7004L6.66667 35.9038L9.04747 33.5304C10.357 32.2251 11.4958 31.1231 11.5781 31.0814C11.7681 30.9853 12.1514 30.9841 12.4005 31.0789C12.5065 31.1191 13.0488 31.6041 13.6056 32.1565L14.6181 33.1608L14.6003 29.289L14.5826 25.4171L10.7107 25.3994L6.83886 25.3816L7.84322 26.3941ZM24.4226 30.7314V35.8742H29.5655H34.7084V30.7314V25.5885H29.5655H24.4226V30.7314Z" fill="#323637"/>
</g>
<defs>
<clipPath id="clip0_5401_38329">
<rect width="36" height="36" fill="white" transform="translate(2 2)"/>
</clipPath>
</defs>
</svg>
