<svg width="40" height="40" viewBox="0 0 40 40" fill="none" xmlns="http://www.w3.org/2000/svg">
<g clip-path="url(#clip0_5401_38217)">
<path fill-rule="evenodd" clip-rule="evenodd" d="M34.3999 2.1004C31.7275 2.58966 27.566 5.27478 23.4284 9.17938C22.303 10.2415 21.719 10.8395 20.4315 12.2479L20.1775 12.5259L19.4201 11.7727C19.0035 11.3585 18.6627 10.9816 18.6627 10.935C18.6627 10.8885 18.8661 10.6257 19.1147 10.351C19.8728 9.51318 20.8184 8.31469 21.3524 7.51473C22.9448 5.12941 23.2278 3.56262 22.2293 2.66049C21.6326 2.12139 20.5534 2.14134 19.3142 2.71425C18.1048 3.27345 16.2943 4.5676 14.6856 6.02276C11.0551 9.30671 8.44559 13.0007 8.44559 14.8558C8.44559 15.5695 8.83172 16.202 9.43432 16.4758C10.2683 16.8545 11.7578 16.4377 13.4137 15.3621L13.8219 15.097L14.5871 15.8343C15.0079 16.2398 15.3565 16.6086 15.3618 16.6539C15.367 16.6991 15.0895 17.3882 14.7452 18.1852C14.1415 19.5823 14.1203 19.6487 14.1551 20.0327C14.1911 20.4299 14.1902 20.4326 13.785 21.0042C12.861 22.308 12.0163 24.5054 11.7459 26.3087C11.584 27.3891 11.5842 27.4549 11.7513 27.7814C12.0421 28.3496 12.475 28.4583 13.6714 28.2635C15.7391 27.9268 17.8849 27.0675 19.2759 26.0189C19.5262 25.8304 19.618 25.7977 19.7902 25.8358C20.1945 25.9253 20.3964 25.8669 21.849 25.2405L23.3132 24.6091L23.4742 24.7389C23.5628 24.8103 23.9199 25.1643 24.2678 25.5256L24.9003 26.1824L24.6365 26.5884C23.5624 28.2421 23.1457 29.7322 23.5242 30.5657C23.7972 31.1667 24.4332 31.556 25.1381 31.5534C27.7184 31.5441 33.7117 26.5026 36.59 21.9202C37.394 20.6403 37.726 19.775 37.7252 18.9617C37.7247 18.405 37.6197 18.0809 37.3395 17.7708C36.4386 16.7736 34.8739 17.0562 32.4799 18.6485C31.7367 19.1427 30.4455 20.1627 29.649 20.8847C29.3743 21.1336 29.1121 21.3367 29.0662 21.3359C29.0203 21.3352 28.6434 20.9963 28.2287 20.5829L27.4747 19.8313L27.6459 19.6691C27.74 19.5798 28.2314 19.1242 28.7379 18.6566C30.5222 17.009 32.8779 14.3855 34.3651 12.3894C35.3695 11.0414 36.6263 8.9932 37.1427 7.86301C38.2173 5.51108 38.2526 3.76141 37.2456 2.75444C36.5872 2.09601 35.628 1.87556 34.3999 2.1004ZM34.4353 4.23592C33.4131 4.51062 31.8683 5.26573 30.5021 6.1586C29.9753 6.50283 29.8367 6.62543 29.8707 6.71704C29.8946 6.78164 30.0594 7.07691 30.237 7.3732C30.8193 8.345 31.9063 9.37707 32.9555 9.95451L33.3627 10.1785L33.5046 10.0006C34.1221 9.22614 35.2502 7.10941 35.5982 6.07213C35.877 5.24097 35.9558 4.42299 35.7744 4.24168C35.6276 4.09487 34.9707 4.09206 34.4353 4.23592ZM19.7871 4.83627C16.8011 6.40779 12.2868 10.968 10.9165 13.797C10.6887 14.2674 10.6556 14.3815 10.7418 14.3997C10.8873 14.4304 11.7692 13.9477 12.5778 13.3949C12.946 13.1432 13.3471 12.8833 13.4693 12.8174C13.7379 12.6724 14.1459 12.6623 14.3976 12.7946C14.5892 12.8953 17.4737 15.7585 17.5864 15.9598C17.7049 16.1715 17.6543 16.6973 17.478 17.0859C17.3839 17.2933 17.0981 17.9519 16.8428 18.5494L16.3787 19.6358L18.3705 21.6276L20.3623 23.6195L21.3811 23.1883C21.9414 22.9511 22.585 22.6738 22.8113 22.5718C23.361 22.3241 23.5168 22.2926 23.8348 22.3646C24.0622 22.416 24.337 22.6576 25.6051 23.9213C26.4307 24.7441 27.1504 25.5006 27.2045 25.6024C27.3376 25.8533 27.328 26.2615 27.1826 26.5308C27.1167 26.6529 26.8568 27.054 26.6051 27.4222C26.0487 28.2361 25.5699 29.1127 25.6003 29.2618C25.6185 29.3513 25.7508 29.3076 26.3133 29.0257C29.1668 27.5959 33.7264 23.0383 35.1971 20.1457C35.3983 19.7499 35.5436 19.4067 35.5199 19.3831C35.4667 19.3299 34.4826 19.8199 33.9622 20.1588C32.8651 20.8733 30.686 22.6631 29.9427 23.4603C29.8296 23.5817 29.6487 23.7271 29.5408 23.7834C29.2884 23.9152 28.8127 23.9147 28.5618 23.7824C28.2893 23.6386 25.1492 20.4616 25.0133 20.1922C24.8721 19.912 24.8767 19.5792 25.0256 19.3026C25.09 19.183 25.405 18.8603 25.7256 18.5855C27.0057 17.4882 28.619 15.9154 29.8312 14.583C30.9249 13.3809 32.1027 11.9873 32.1027 11.8954C32.1027 11.8601 31.9876 11.7764 31.8469 11.7092C31.0425 11.3257 29.7086 10.1734 29.0389 9.2836C28.6766 8.80216 28.2308 8.11014 28.1748 7.94207C28.14 7.83771 27.9323 7.98157 27.0843 8.69752C24.9817 10.473 22.3984 13.0367 21.1984 14.5388C20.809 15.0264 20.3202 15.2026 19.8516 15.0245C19.6251 14.9384 16.3668 11.7232 16.2172 11.4383C16.0923 11.2003 16.0829 10.7115 16.1991 10.492C16.2459 10.4038 16.5775 10.023 16.9362 9.64587C17.9643 8.56484 19.1814 7.05579 19.8397 6.04587C20.0663 5.69821 20.6513 4.58721 20.6513 4.50452C20.6513 4.41332 20.4275 4.49924 19.7871 4.83627ZM27.1271 11.5011C27.0117 11.5581 26.1891 12.3365 25.2991 13.231C23.4705 15.0688 23.4073 15.1641 23.6294 15.7457C23.7643 16.099 23.9821 16.2967 24.3612 16.4104C24.8688 16.5625 25.0491 16.4324 26.8716 14.5997C28.634 12.8274 28.6884 12.7513 28.5799 12.2091C28.4522 11.5702 27.715 11.211 27.1271 11.5011ZM15.3735 22.3708C14.6321 23.5179 13.6825 26.0687 13.9969 26.0687C14.1757 26.0687 15.181 25.7841 15.6941 25.5881C16.5935 25.2447 18.0456 24.4484 18.0456 24.2986C18.0456 24.2329 15.7607 21.9544 15.6948 21.9544C15.6661 21.9544 15.5215 22.1418 15.3735 22.3708ZM7.51988 22.6696C7.40673 22.7206 6.29231 23.7917 5.04342 25.0498C3.04559 27.0623 2.76795 27.3679 2.73387 27.5917C2.6164 28.3627 3.2954 29.0004 4.02493 28.8042C4.25238 28.743 4.66683 28.3634 6.55 26.4913C7.80356 25.245 8.84536 24.1537 8.89857 24.0309C9.28305 23.1436 8.40102 22.2726 7.51988 22.6696ZM9.64559 28.9865C9.53245 29.0445 7.79601 30.7337 5.7868 32.7403C2.91085 35.6127 2.11762 36.442 2.05796 36.6393C1.83387 37.3798 2.50436 38.1106 3.27901 37.9701C3.51414 37.9274 3.94258 37.523 7.22831 34.2422C9.25535 32.2182 10.9602 30.4645 11.0169 30.3451C11.1541 30.0558 11.1446 29.7985 10.9836 29.4435C10.7678 28.9681 10.1158 28.7454 9.64559 28.9865ZM15.9542 31.1043C15.841 31.1554 14.7404 32.2111 13.5083 33.4502C11.6103 35.3589 11.257 35.7453 11.1954 35.9795C10.9955 36.7392 11.7012 37.4423 12.4592 37.2385C12.6867 37.1773 13.1011 36.7977 14.9843 34.9255C16.2378 33.6793 17.2796 32.588 17.3329 32.4652C17.7176 31.5773 16.8349 30.706 15.9542 31.1043Z" fill="#323637"/>
</g>
<defs>
<clipPath id="clip0_5401_38217">
<rect width="36" height="36" fill="white" transform="translate(2 2)"/>
</clipPath>
</defs>
</svg>
