<svg width="40" height="40" viewBox="0 0 40 40" fill="none" xmlns="http://www.w3.org/2000/svg">
<g clip-path="url(#clip0_5401_38297)">
<path fill-rule="evenodd" clip-rule="evenodd" d="M18.9703 2.09977C17.9394 2.28711 17.0907 2.74983 16.2608 3.57715C15.6132 4.22275 15.2355 4.85463 14.949 5.77143C14.7174 6.51283 14.7179 7.90538 14.9501 8.64903C15.3684 9.98906 16.1636 10.9963 17.3539 11.694C20.245 13.3884 23.9841 11.8605 24.9173 8.60337C25.0386 8.18035 25.0709 7.88947 25.0723 7.21143C25.0744 6.17936 24.9708 5.73571 24.5113 4.81143C24.244 4.27356 24.0854 4.05845 23.6014 3.57715C23.279 3.25657 22.8391 2.89075 22.6238 2.76423C21.4858 2.09559 20.2402 1.86903 18.9703 2.09977ZM18.9892 4.25888C17.5434 4.72106 16.6141 6.22455 16.866 7.69377C17.2139 9.72211 19.3969 10.8721 21.239 9.99729C22.4754 9.41011 23.2218 8.04465 23.0034 6.76963C22.7348 5.20174 21.4643 4.11845 19.9069 4.12942C19.5971 4.13161 19.2217 4.18455 18.9892 4.25888ZM7.44575 6.51783C7.28543 6.61562 6.62612 7.6601 4.7079 10.8548C3.31823 13.1692 2.13654 15.1764 2.08196 15.3152C1.95455 15.6393 2.01805 15.9868 2.25647 16.2702C2.60845 16.6884 2.40822 16.6744 8.01476 16.6728C12.8704 16.6713 13.1576 16.6645 13.4242 16.5434C13.6336 16.4483 13.7434 16.3378 13.8528 16.1119C14.0401 15.7248 14.037 15.5549 13.8346 15.1314C13.7444 14.9429 12.5768 12.968 11.2399 10.7429C9.4095 7.69637 8.7532 6.65902 8.58287 6.54286C8.2922 6.34462 7.74945 6.33269 7.44575 6.51783ZM31.2112 8.0059C30.9226 8.13022 25.738 13.2684 25.4435 13.722C25.2342 14.0443 25.1952 14.3368 25.3179 14.6641C25.4 14.8833 30.8719 20.4027 31.1564 20.5534C31.4713 20.7201 31.908 20.6788 32.2124 20.4534C32.3595 20.3444 33.7038 19.0253 35.1998 17.522C37.8328 14.876 37.9213 14.7786 37.9658 14.4749C37.9971 14.2617 37.9796 14.0843 37.9112 13.9207C37.7824 13.6125 32.2972 8.12439 31.9849 7.99123C31.7055 7.87212 31.5134 7.87575 31.2112 8.0059ZM7.94625 9.51914C7.0036 11.0604 4.94838 14.5145 4.94838 14.5576C4.94838 14.5904 6.31892 14.6172 7.99981 14.6172C9.67809 14.6172 11.0512 14.5908 11.0512 14.5585C11.0512 14.4862 8.18728 9.68179 8.06769 9.55342C8.02045 9.50268 7.9658 9.48725 7.94625 9.51914ZM29.6415 12.3972L27.7632 14.2888L29.6928 16.2184L31.6223 18.148L33.5082 16.263C34.5455 15.2263 35.3941 14.3468 35.3941 14.3086C35.3941 14.2178 31.677 10.5025 31.5879 10.5042C31.5505 10.5049 30.6746 11.3568 29.6415 12.3972ZM19.0813 14.7213C18.0785 15.0029 17.3081 15.7343 16.9093 16.7835C16.792 17.0921 16.7795 17.4005 16.7584 20.5031C16.737 23.653 16.7274 23.8829 16.6191 23.8389C15.9384 23.5624 15.7301 23.5223 15.0947 23.5455C14.5482 23.5655 14.3767 23.6008 14.0497 23.7608C13.3264 24.1147 12.8202 24.7906 12.6287 25.6584C12.5031 26.2269 12.5733 30.1412 12.7246 31.0057C12.995 32.5515 13.4109 33.8013 14.1419 35.2644C14.3606 35.7021 14.651 36.3806 14.7873 36.7721C15.0511 37.5298 15.2043 37.7555 15.5576 37.906C15.8831 38.0447 26.0333 38.0451 26.3652 37.9065C26.7394 37.7501 26.9267 37.4557 27.0979 36.7541C27.3064 35.8999 27.6036 35.0636 27.9275 34.4192C28.8461 32.5916 29.3768 30.6164 29.388 28.9829C29.3931 28.2407 29.3687 28.0111 29.242 27.6114C28.8702 26.4379 27.9709 25.4269 26.8631 24.937C26.2265 24.6554 25.5667 24.56 24.2564 24.56H23.0557L23.0364 20.8057C23.017 17.0597 23.0166 17.0505 22.8579 16.6576C22.5199 15.8206 21.8259 15.1348 20.9925 14.8142C20.4976 14.6237 19.5863 14.5794 19.0813 14.7213ZM19.4 16.8306C18.8623 17.1561 18.9067 16.6031 18.8684 23.4407C18.8345 29.483 18.8324 29.5581 18.6927 29.7451C18.4312 30.0952 18.2021 30.2172 17.8055 30.2172C17.409 30.2172 17.1799 30.0953 16.9183 29.7452C16.7901 29.5735 16.7736 29.4302 16.7407 28.2066C16.7002 26.6927 16.6611 26.5356 16.2149 26.0894C15.6822 25.5567 15.0748 25.4401 14.7952 25.8168C14.6565 26.0037 14.6514 26.0828 14.6564 27.9768C14.6605 29.4954 14.6882 30.0972 14.7782 30.6211C14.9885 31.8466 15.4225 33.1676 15.9745 34.2629C16.1076 34.5269 16.3182 34.9897 16.4425 35.2915L16.6686 35.84L20.9056 35.8575L25.1427 35.8751L25.4029 35.1087C25.5461 34.6872 25.8341 33.985 26.043 33.5483C26.547 32.4948 26.7889 31.8328 27.047 30.8C27.2303 30.0671 27.2618 29.8138 27.2648 29.0514C27.268 28.2496 27.2526 28.1305 27.1113 27.8658C26.8984 27.4671 26.5098 27.0917 26.0998 26.8888C25.7678 26.7245 25.7121 26.7197 23.737 26.686C21.467 26.6472 21.4206 26.6374 21.1377 26.134C20.9964 25.8825 20.9941 25.8136 20.9941 21.7329V17.5873L20.8347 17.2851C20.5387 16.724 19.9067 16.5238 19.4 16.8306Z" fill="#323637"/>
</g>
<defs>
<clipPath id="clip0_5401_38297">
<rect width="36" height="36" fill="white" transform="translate(2 2)"/>
</clipPath>
</defs>
</svg>
