<svg width="40" height="40" viewBox="0 0 40 40" fill="none" xmlns="http://www.w3.org/2000/svg">
<g clip-path="url(#clip0_5401_38265)">
<path fill-rule="evenodd" clip-rule="evenodd" d="M18.4148 2.06978C14.7637 2.4254 11.4105 3.79168 8.66787 6.0411C5.07226 8.99008 2.83518 12.9643 2.1612 17.6002C1.99525 18.7419 1.99525 21.2585 2.1612 22.4002C2.4804 24.5954 3.07272 26.43 4.09779 28.398C4.91036 29.9579 5.87283 31.2619 7.23137 32.6434C9.96943 35.4275 13.4536 37.1997 17.3803 37.8054C18.7805 38.0214 21.222 38.0209 22.626 37.8045C24.5819 37.5028 26.1256 37.0134 27.9563 36.1147C33.2327 33.5242 36.9416 28.451 37.7916 22.6614C37.8681 22.1406 37.9308 21.5371 37.931 21.3202C37.9312 21.1033 37.9622 20.9259 37.9999 20.9259C38.0425 20.9259 38.0685 20.5474 38.0685 19.9276C38.0685 19.2795 38.0444 18.9441 37.9999 18.9716C37.9576 18.9978 37.9312 18.8751 37.931 18.6499C37.9304 18.097 37.6767 16.4855 37.4547 15.6246C36.4766 11.8326 34.3986 8.57001 31.3676 6.06811C30.312 5.19678 29.2481 4.51579 27.9542 3.88336C26.0988 2.9763 24.5654 2.49068 22.6552 2.20514C21.5765 2.04386 19.3957 1.97426 18.4148 2.06978ZM18.4228 4.17081C14.6269 4.58841 11.1964 6.26107 8.58278 8.96862C6.30586 11.3272 4.92716 14.0491 4.31571 17.3925C4.18536 18.1055 4.16485 18.4591 4.16485 20.0002C4.16485 21.9889 4.24392 22.6206 4.70108 24.2878C6.16789 29.6366 10.5417 33.9498 15.9218 35.3533C17.4348 35.748 18.2069 35.8402 19.9999 35.8402C21.793 35.8402 22.565 35.748 24.0781 35.3533C26.8617 34.6271 29.3749 33.1473 31.4171 31.0317C33.3515 29.0278 34.6691 26.7002 35.3531 24.0783C35.7478 22.5653 35.8399 21.7932 35.8399 20.0002C35.8399 18.2071 35.7478 17.4351 35.3531 15.922C33.9482 10.5366 29.6421 6.16974 24.2886 4.70162C22.7589 4.2821 22.029 4.18384 20.2742 4.16108C19.4068 4.14983 18.5736 4.15422 18.4228 4.17081ZM19.3142 6.2285C14.8162 6.4792 10.8438 8.79006 8.36362 12.5987C7.56236 13.8292 6.5942 16.2407 6.5942 17.0062C6.5942 17.6159 7.08374 18.0849 7.65706 18.0244C7.80792 18.0085 8.27078 17.8488 8.68563 17.6695C10.7456 16.7792 13.1312 16.0985 15.5179 15.72C17.0532 15.4765 18.0414 15.4077 19.9999 15.4077C21.087 15.4077 22.2918 15.4463 22.7771 15.4966C25.8225 15.8127 28.7145 16.5483 31.3043 17.6656C31.7891 17.8747 32.2828 18.0458 32.4014 18.0458C32.7078 18.0456 33.0685 17.8446 33.25 17.5729C33.4947 17.2066 33.4576 16.8214 33.064 15.6429C31.3973 10.6519 27.0914 7.05636 21.9542 6.36585C21.0993 6.25093 19.9682 6.19209 19.3142 6.2285ZM18.4571 8.37952C16.5011 8.64749 14.4589 9.49661 12.8685 10.7032C11.9483 11.4013 10.8449 12.5836 10.2488 13.5101C9.91526 14.0285 9.40824 14.9737 9.4068 15.0796C9.40598 15.1383 9.54902 15.1105 9.86849 14.9898C11.0791 14.5322 13.4021 13.9433 15.0971 13.6642C18.1418 13.1628 21.7757 13.1611 24.8832 13.6597C26.5175 13.9219 29.3942 14.6575 30.3551 15.059C30.4876 15.1143 30.5942 15.1291 30.5942 15.0921C30.5942 14.9489 30.0994 14.0539 29.6426 13.3708C28.5967 11.8066 27.0824 10.4753 25.3439 9.59145C23.5445 8.67664 22.2971 8.37054 20.2399 8.33892C19.5045 8.32768 18.7022 8.34592 18.4571 8.37952ZM17.3198 17.7992C17.056 17.9157 16.8349 18.1913 16.7332 18.5306C16.6645 18.7603 16.6746 18.8296 16.819 19.1177C17.1334 19.745 17.0285 19.723 19.8163 19.7465C21.1619 19.7578 22.3637 19.7486 22.4871 19.726C22.8181 19.6653 23.155 19.3361 23.2562 18.9747C23.3352 18.6927 23.3289 18.6406 23.1797 18.343C22.865 17.7155 22.9848 17.7395 20.0807 17.7216C18.0523 17.7091 17.4882 17.725 17.3198 17.7992ZM2.02734 20.0002C2.02741 20.5659 2.03804 20.7882 2.05093 20.4942C2.06382 20.2002 2.06376 19.7373 2.0508 19.4656C2.03777 19.1939 2.02728 19.4345 2.02734 20.0002ZM7.14415 22.0746C6.80362 22.2457 6.594 22.5897 6.59496 22.976C6.5964 23.5565 7.10102 25.0328 7.71062 26.2402C9.00319 28.7999 11.2357 31.0332 13.7668 32.2983C14.1461 32.488 14.5392 32.6639 14.6401 32.6892C14.9284 32.7615 15.285 32.663 15.5374 32.4414C15.754 32.2511 15.8683 31.9406 17.2919 27.6692C18.9338 22.7432 18.9036 22.8668 18.5799 22.3925C18.2714 21.9401 18.4653 21.9545 12.6443 21.9546C7.77192 21.9547 7.36515 21.9635 7.14415 22.0746ZM21.7755 22.0854C21.5661 22.1805 21.4563 22.2909 21.3469 22.5169C21.2661 22.6839 21.1999 22.8935 21.1999 22.9826C21.1999 23.0717 21.8815 25.1903 22.7145 27.6906C24.1324 31.9461 24.244 32.2496 24.4617 32.4407C24.7159 32.6639 25.0714 32.7616 25.3634 32.6883C25.6493 32.6166 26.867 31.9902 27.4056 31.6378C30.1318 29.8544 32.1249 27.2722 33.0985 24.2622C33.4536 23.1643 33.4854 22.7799 33.25 22.4275C32.9177 21.93 33.2251 21.9545 27.3371 21.9561C22.3329 21.9574 22.0423 21.9641 21.7755 22.0854ZM9.09994 24.2345C9.20054 24.5685 9.67519 25.5178 10.0441 26.1228C10.7076 27.2107 11.5139 28.1565 12.4228 28.9128C13.1093 29.4842 14.0662 30.1249 14.1957 30.1C14.2677 30.0861 14.5929 29.197 15.2437 27.2343C15.7626 25.6692 16.2048 24.3193 16.2263 24.2345L16.2654 24.0802H12.6595H9.05352L9.09994 24.2345ZM23.7371 24.1161C23.7371 24.2195 25.6813 30.0219 25.7351 30.0789C25.8225 30.1716 26.2509 29.9349 26.962 29.4012C28.1948 28.4757 29.175 27.4029 29.9526 26.128C30.3242 25.5187 30.799 24.5695 30.8999 24.2345L30.9463 24.0802H27.3417C25.3591 24.0802 23.7371 24.0964 23.7371 24.1161Z" fill="#323637"/>
</g>
<defs>
<clipPath id="clip0_5401_38265">
<rect width="36" height="36" fill="white" transform="translate(2 2)"/>
</clipPath>
</defs>
</svg>
