<svg width="36" height="36" viewBox="0 0 36 36" fill="none" xmlns="http://www.w3.org/2000/svg">
<g clip-path="url(#clip0_5432_38199)">
<path fill-rule="evenodd" clip-rule="evenodd" d="M7.96348 2.28912C6.77878 2.48708 5.40495 3.04042 4.35919 3.74084C3.6934 4.18673 2.39346 5.48561 1.92103 6.17691C0.00185241 8.98554 -0.492374 12.6701 0.603446 15.9998C1.07932 17.4458 2.13274 19.2897 3.32946 20.7717C4.57097 22.3091 6.54752 24.2836 9.03497 26.4712C10.9828 28.1843 17.2724 33.5668 17.4725 33.6919C17.7483 33.8644 18.2513 33.8644 18.5272 33.6919C18.7273 33.5668 25.0169 28.1843 26.9647 26.4712C29.4521 24.2836 31.4287 22.3091 32.6702 20.7717C34.5787 18.4082 35.7501 15.7998 35.9094 13.5588C35.9321 13.239 35.9776 12.9608 36.0104 12.9406C36.0433 12.9203 36.0701 12.6669 36.0701 12.3775C36.0701 12.088 36.0431 11.8678 36.0101 11.8881C35.9772 11.9085 35.9302 11.6434 35.9057 11.2992C35.7851 9.604 35.0914 7.65908 34.0786 6.17691C33.6062 5.48561 32.3062 4.18673 31.6404 3.74084C28.9009 1.90603 25.2719 1.65494 22.4703 3.10645C20.924 3.90757 19.2867 5.52758 18.3249 7.20807C18.1654 7.48666 18.0191 7.71459 17.9998 7.71459C17.9805 7.71459 17.8342 7.48666 17.6748 7.20807C16.9783 5.99122 15.8686 4.73024 14.7654 3.90217C13.6041 3.03045 12.387 2.5021 11.037 2.28357C10.2287 2.15277 8.76384 2.15543 7.96348 2.28912ZM8.54876 4.288C6.96624 4.51831 5.57461 5.2388 4.44602 6.41207C2.99695 7.91852 2.23716 9.76561 2.13309 12.0349C1.98249 15.3194 3.47332 18.2092 7.27491 22.0015C8.78705 23.5099 10.0191 24.6082 14.5674 28.502L17.9998 31.4406L21.4323 28.502C25.9805 24.6082 27.2126 23.5099 28.7247 22.0015C32.5263 18.2092 34.0171 15.3194 33.8665 12.0349C33.7625 9.76561 33.0027 7.91852 31.5536 6.41207C30.2866 5.09494 28.6915 4.35501 26.8606 4.23529C23.5714 4.02014 20.7182 6.24891 19.1663 10.2454C19.0046 10.6619 18.8308 10.9829 18.7034 11.1007C18.4348 11.3492 18.0724 11.4471 17.75 11.3582C17.3406 11.2454 17.1156 10.9723 16.8333 10.2454C15.6998 7.32617 13.8143 5.27852 11.5662 4.52526C10.7347 4.24659 9.49995 4.14954 8.54876 4.288ZM0.0239306 12.4559C0.0241415 12.7647 0.0365165 12.8823 0.0513524 12.7173C0.0662587 12.5522 0.0660478 12.2996 0.0509306 12.1559C0.0358134 12.0121 0.0236493 12.1472 0.0239306 12.4559Z" fill="#323637"/>
</g>
<defs>
<clipPath id="clip0_5432_38199">
<rect width="36" height="36" fill="white"/>
</clipPath>
</defs>
</svg>
