<svg width="40" height="40" viewBox="0 0 40 40" fill="none" xmlns="http://www.w3.org/2000/svg">
<g clip-path="url(#clip0_5401_38233)">
<path fill-rule="evenodd" clip-rule="evenodd" d="M30.9699 2.09558C30.856 2.14522 30.4991 2.47567 30.1766 2.83005C29.0364 4.08326 18.6078 15.5626 17.1961 17.1185C16.4083 17.9867 15.7233 18.7407 15.6738 18.7941C15.5973 18.8766 15.5257 18.8406 15.196 18.5541C14.176 17.6679 13.3066 17.1613 12.247 16.8357C11.6753 16.6599 11.5489 16.647 10.3655 16.6436C9.23521 16.6404 9.03717 16.6573 8.5484 16.7991C7.18383 17.1949 5.6254 18.2004 5.04049 19.0623C4.74426 19.4989 4.85994 20.0609 5.31786 20.4102C5.52357 20.5671 5.70316 20.6076 6.87793 20.7618L8.20554 20.9361L9.74812 22.4737L11.2907 24.0113L8.75384 26.5534L6.21697 29.0956L4.29471 30.038C3.02668 30.6598 2.32341 31.0429 2.22817 31.1639C2.01731 31.432 1.98117 31.7585 2.09596 32.3587C2.91539 36.6421 2.94296 36.7431 3.36097 36.9892C3.53411 37.0911 4.74755 37.3503 7.64668 37.9049C7.94373 37.9617 8.28179 37.9869 8.40097 37.9611C8.87871 37.8577 8.97374 37.7203 9.96083 35.707L10.9042 33.7828L13.4464 31.246L15.9885 28.7091L17.5261 30.2517L19.0637 31.7943L19.238 33.1219C19.3941 34.3107 19.4314 34.4745 19.5951 34.6891C19.9293 35.1274 20.5158 35.2454 20.9375 34.9593C21.7994 34.3744 22.8049 32.816 23.2007 31.4514C23.341 30.9679 23.3598 30.7564 23.3598 29.6686C23.3598 28.5118 23.3476 28.3933 23.1654 27.7828C22.8414 26.6977 22.3468 25.841 21.4457 24.8038C21.1594 24.4743 21.1233 24.4025 21.2057 24.3264C21.2591 24.2772 22.1667 23.4525 23.2227 22.4937C29.8598 16.4677 33.665 13.0088 34.2627 12.4586C34.6398 12.1114 35.5923 11.2466 36.3794 10.5368C37.3701 9.64337 37.8419 9.17084 37.9129 9.00086C38.0059 8.77827 38.0016 8.64668 37.866 7.58911C37.5093 4.80689 37.3177 3.45857 37.2562 3.29654C37.1548 3.02993 36.7487 2.71149 36.4491 2.66362C35.9571 2.58497 31.3838 2.00047 31.2798 2.00294C31.2232 2.00424 31.0838 2.04593 30.9699 2.09558ZM31.6827 4.24611C31.6686 4.28424 31.3463 4.65069 30.9667 5.06054C30.587 5.47039 30.1396 5.95985 29.9724 6.14828C29.8052 6.33665 29.2184 6.98465 28.6686 7.58828C26.6358 9.81932 25.536 11.0291 24.8379 11.8017C24.4439 12.2376 23.3635 13.4274 22.4367 14.4457C21.51 15.464 20.152 16.9606 19.4188 17.7714C18.6857 18.5823 17.8993 19.4405 17.6714 19.6787C17.4435 19.9167 17.2475 20.138 17.2359 20.1704C17.2243 20.2027 17.631 20.2394 18.1398 20.2517C18.9458 20.2714 19.0889 20.2924 19.2537 20.4157C19.6827 20.7364 19.7236 20.856 19.7481 21.8601C19.7604 22.3688 19.7971 22.7755 19.8294 22.7639C19.8618 22.7523 20.0831 22.5566 20.3211 22.3289C20.5593 22.1013 21.2324 21.4822 21.817 20.9531C23.4516 19.4736 27.3433 15.9414 29.3255 14.1379C31.6718 12.0032 33.4334 10.4041 34.1921 9.72017C34.5304 9.41523 35.0368 8.94696 35.3175 8.6796L35.8278 8.19343L35.6064 6.45103C35.4846 5.49267 35.3639 4.68785 35.3381 4.66255C35.2916 4.61688 32.9324 4.28794 32.1285 4.21498C31.873 4.19181 31.6984 4.20401 31.6827 4.24611ZM9.61125 18.7065C9.51697 18.7252 9.3166 18.7726 9.16602 18.8116L8.89228 18.8828L9.13173 19.0082C9.26346 19.0772 10.0036 19.7682 10.7764 20.5439C11.5492 21.3196 12.2048 21.9543 12.2335 21.9543C12.2621 21.9543 12.2855 21.7455 12.2855 21.4903C12.2855 21.1694 12.3248 20.9533 12.4127 20.7892C12.5878 20.4628 13.0274 20.24 13.4963 20.24C13.6978 20.24 13.8627 20.2145 13.8627 20.1834C13.8627 20.0703 12.9737 19.4092 12.5155 19.1814C12.257 19.0529 11.8604 18.8974 11.6341 18.8359C11.2239 18.7243 9.93669 18.6421 9.61125 18.7065ZM14.3739 22.383C14.3553 22.4317 14.3483 23.1806 14.3585 24.0472L14.377 25.6228H16.0227H17.6684V23.9771V22.3314L16.0382 22.313C14.757 22.2986 14.4006 22.3136 14.3739 22.383ZM10.2283 28.0229L8.27487 29.9773L9.14874 30.8511L10.0225 31.7249L11.9769 29.7715C13.0518 28.6971 13.9313 27.7981 13.9313 27.7737C13.9313 27.7492 13.7074 27.718 13.4338 27.7041C12.6215 27.6631 12.2855 27.307 12.2855 26.4868C12.2855 26.2567 12.2622 26.0686 12.2336 26.0686C12.2051 26.0686 11.3027 26.948 10.2283 28.0229ZM19.7598 26.4926C19.7598 27.2954 19.3258 27.7143 18.494 27.7143C18.2473 27.7143 18.0455 27.7377 18.0455 27.7663C18.0455 27.795 18.6802 28.4507 19.4559 29.2235C20.2316 29.9963 20.9227 30.7363 20.9916 30.8681L21.117 31.1075L21.2076 30.7995C21.2607 30.619 21.298 30.1508 21.2977 29.6686C21.2972 28.7203 21.1854 28.2178 20.8094 27.4743C20.5713 27.0035 19.928 26.1371 19.8164 26.1371C19.7853 26.1371 19.7598 26.2971 19.7598 26.4926ZM5.37697 31.8306C4.53909 32.237 4.26378 32.4015 4.267 32.494C4.26933 32.5617 4.38659 33.2003 4.52757 33.913L4.78389 35.2088L6.11761 35.4726C6.85112 35.6177 7.49109 35.7366 7.53978 35.7368C7.63729 35.7372 8.74053 33.5116 8.70666 33.3829C8.67765 33.2728 6.63107 31.2787 6.55359 31.2851C6.5193 31.2879 5.98986 31.5334 5.37697 31.8306Z" fill="#323637"/>
</g>
<defs>
<clipPath id="clip0_5401_38233">
<rect width="36" height="36" fill="white" transform="translate(2 2)"/>
</clipPath>
</defs>
</svg>
