<svg width="40" height="40" viewBox="0 0 40 40" fill="none" xmlns="http://www.w3.org/2000/svg">
<g clip-path="url(#clip0_5401_38249)">
<path fill-rule="evenodd" clip-rule="evenodd" d="M19.1976 2.07406C17.7071 2.29259 16.2603 3.16708 15.4016 4.36859C15.0281 4.89118 14.6686 5.63771 14.5121 6.21556C14.4456 6.4616 14.3618 6.66286 14.3261 6.66286C14.2904 6.66286 14.1792 6.60505 14.0791 6.53442C13.7546 6.30532 13.0165 5.96096 12.56 5.8256C11.9812 5.65396 10.8078 5.59102 10.1892 5.69854C8.5875 5.9768 7.07529 7.14882 6.18674 8.80064C5.26507 10.5141 5.37294 12.5203 6.47296 14.1248C6.58466 14.2877 6.66537 14.4292 6.65227 14.4391C6.63925 14.449 6.31998 14.5535 5.94283 14.6714C4.11979 15.241 2.72567 16.688 2.19629 18.56C2.07067 19.0042 2.04215 19.2716 2.0464 19.9657C2.05277 21.0109 2.19911 21.6306 2.66183 22.5714C2.93687 23.1308 3.07511 23.3149 3.63966 23.8743C4.40251 24.6301 5.00567 24.9845 6.04569 25.2879C6.40398 25.3924 6.70658 25.484 6.71817 25.4915C6.72983 25.4989 6.63465 25.6704 6.50677 25.8725C6.21019 26.3412 5.87844 27.1517 5.76688 27.68C5.65483 28.2106 5.65545 29.3479 5.76798 29.8743C6.0003 30.9607 6.53097 31.9105 7.37886 32.7576C7.91611 33.2943 8.09721 33.4261 8.71998 33.7334C9.65584 34.1952 10.1847 34.3205 11.2228 34.3263C12.2666 34.3322 12.8797 34.1935 13.7589 33.7525C14.171 33.5459 14.4311 33.4499 14.4473 33.4988C14.4615 33.5418 14.5086 33.716 14.5518 33.8857C14.595 34.0554 14.7323 34.4157 14.8569 34.6863C15.8916 36.9332 18.228 38.2532 20.6092 37.9364C21.8567 37.7703 22.9411 37.2633 23.8185 36.4355C24.6068 35.6919 25.0813 34.942 25.3885 33.9543C25.4766 33.6714 25.5512 33.4335 25.5544 33.4255C25.5576 33.4176 25.8625 33.5627 26.2319 33.7479C27.1202 34.1935 27.7309 34.3322 28.7771 34.3263C29.8105 34.3205 30.3449 34.195 31.2585 33.7435C32.9298 32.9175 34.0665 31.2866 34.298 29.3826C34.4478 28.1509 34.0879 26.6935 33.3895 25.7046C33.3148 25.5987 33.2647 25.5048 33.2782 25.4959C33.2917 25.4871 33.5497 25.4111 33.8514 25.3271C35.4753 24.8751 36.7466 23.8372 37.4216 22.4125C37.6746 21.8786 37.9314 20.9705 37.9314 20.6102C37.9314 20.4864 37.9623 20.3662 38 20.3429C38.0377 20.3195 38.0686 20.0999 38.0686 19.8548C38.0686 19.5751 38.043 19.4248 38 19.4514C37.9603 19.476 37.9314 19.4101 37.9314 19.295C37.9314 18.708 37.4647 17.4946 36.9523 16.7494C36.2508 15.7294 34.9534 14.8594 33.6628 14.5434C33.4837 14.4996 33.3371 14.4498 33.3371 14.4327C33.3371 14.4157 33.4255 14.2728 33.5336 14.1152C33.852 13.6507 34.0784 13.1555 34.262 12.522C34.7992 10.6682 34.14 8.65739 32.4801 7.08615C31.8673 6.5061 31.304 6.17188 30.4228 5.86551C29.9232 5.69182 29.7856 5.67454 28.88 5.67172C27.6742 5.66788 27.1792 5.77698 26.2213 6.25732C25.5577 6.59017 25.4553 6.59847 25.4524 6.31972C25.4509 6.15934 25.1327 5.32002 24.9379 4.96228C23.8083 2.88752 21.516 1.73408 19.1976 2.07406ZM19.082 4.23412C18.2677 4.45307 17.3891 5.08482 16.9523 5.76553C16.4813 6.49952 16.2767 7.46877 16.4034 8.36514C16.4515 8.70539 16.5201 8.94978 16.5731 8.97015C16.6221 8.98893 16.904 8.94121 17.1996 8.86413C18.0659 8.63819 18.5017 8.57648 19.5291 8.53444C20.6572 8.48823 21.7652 8.59136 22.6681 8.82656C23.0061 8.9146 23.3039 8.97344 23.33 8.95732C23.5316 8.8328 23.596 7.41961 23.4293 6.77963C23.1092 5.55063 22.1768 4.60119 20.9304 4.23508C20.4708 4.10014 19.582 4.09966 19.082 4.23412ZM10.3385 7.79627C9.0099 8.1322 7.7765 9.60512 7.64505 11.0128C7.56695 11.8493 7.96172 12.8088 8.71196 13.6054C9.09362 14.0108 9.73436 14.5486 9.83564 14.5486C9.85456 14.5486 9.99829 14.3328 10.155 14.069C10.9996 12.6472 12.5116 11.1156 13.9292 10.2456C14.2133 10.0713 14.4578 9.91979 14.4724 9.90896C14.524 9.87111 13.9489 9.16221 13.5734 8.80071C13.3649 8.6 13.0747 8.35431 12.9286 8.25481C12.2441 7.7888 11.1407 7.59344 10.3385 7.79627ZM28.0206 7.79236C27.0659 8.0002 26.2496 8.58683 25.634 9.50733C25.5336 9.65751 25.4514 9.80061 25.4514 9.82523C25.4514 9.84992 25.6672 9.99831 25.9309 10.155C27.3565 11.0018 28.8291 12.4538 29.7498 13.9203C29.952 14.2425 30.1308 14.5194 30.147 14.5355C30.2053 14.5938 30.8594 14.0607 31.288 13.6054C32.5235 12.2933 32.6902 10.8447 31.7682 9.42999C30.8812 8.06905 29.5074 7.46871 28.0206 7.79236ZM19.1771 10.6147C17.0957 10.8414 15.3052 11.6153 13.7805 12.9472C12.2243 14.3066 11.1027 16.2919 10.7281 18.3503C10.577 19.1807 10.577 20.8193 10.7281 21.6497C11.4292 25.5015 14.4984 28.5708 18.3503 29.2719C19.1807 29.423 20.8193 29.423 21.6497 29.2719C23.533 28.9291 25.6024 27.8253 26.7543 26.549C27.5733 25.6416 27.9656 25.0837 28.4273 24.1696C29.098 22.8419 29.385 21.5926 29.385 20C29.385 18.4074 29.098 17.1581 28.4273 15.8304C27.9656 14.9162 27.5733 14.3583 26.7543 13.4509C25.6088 12.1818 23.5098 11.0588 21.6862 10.7394C21.0772 10.6328 19.6586 10.5622 19.1771 10.6147ZM17.0871 15.1448C16.9558 15.2129 16.7766 15.376 16.6889 15.5074C16.5335 15.7399 16.5299 15.7812 16.5504 17.0638L16.5714 18.3813L16.809 18.6262C17.3501 19.1841 18.1532 19.0503 18.5173 18.3417C18.6346 18.1135 18.6198 15.9083 18.4992 15.6194C18.2939 15.1282 17.581 14.8885 17.0871 15.1448ZM21.92 15.185C21.4602 15.4435 21.4059 15.6355 21.4058 17.0045C21.4058 17.7478 21.4345 18.2479 21.4826 18.3417C21.8468 19.0503 22.6499 19.1841 23.191 18.6262L23.4286 18.3813L23.4496 17.0638C23.4701 15.7812 23.4665 15.7399 23.3111 15.5074C22.9977 15.0384 22.4193 14.9043 21.92 15.185ZM6.73909 16.577C5.21563 16.9867 4.12569 18.4021 4.12569 19.9709C4.12569 20.9475 4.50928 21.8518 5.20363 22.512C5.95545 23.227 6.77413 23.494 8.08075 23.4504C8.54252 23.4351 8.93927 23.4036 8.96238 23.3804C8.98549 23.3573 8.94133 23.0964 8.86418 22.8007C8.63817 21.934 8.57646 21.4983 8.53442 20.4709C8.49026 19.3924 8.59093 18.2286 8.79465 17.4632C8.99858 16.6968 9.00078 16.7023 8.44933 16.5769C7.86736 16.4446 7.23129 16.4446 6.73909 16.577ZM31.4686 16.5856C31.0187 16.7036 31.0073 16.7343 31.18 17.36C31.5888 18.8406 31.5721 21.2393 31.1422 22.8C31.0608 23.0954 31.0135 23.3564 31.037 23.3798C31.0604 23.4033 31.4575 23.4351 31.9192 23.4504C33.2774 23.4957 34.1522 23.1897 34.8999 22.4079C36.2205 21.0271 36.1978 18.8735 34.8482 17.5062C33.9787 16.6252 32.6732 16.2696 31.4686 16.5856ZM13.3758 19.0928C12.9702 19.3638 12.8868 19.6174 12.9308 20.4457C13.023 22.1802 13.7568 23.7688 15.0395 25.0111C15.7089 25.6594 16.2719 26.054 17.0433 26.4152C18.18 26.9476 19.4635 27.1633 20.7014 27.0301C22.3762 26.8497 23.6965 26.2298 24.9224 25.0479C26.2399 23.7779 26.9759 22.2 27.0692 20.4457C27.1117 19.6447 27.0339 19.385 26.6714 19.1193C26.397 18.9182 25.8203 18.8916 25.5408 19.0672C25.1895 19.2879 25.1001 19.4936 24.9993 20.3122C24.8915 21.1883 24.7864 21.5784 24.4973 22.176C23.889 23.4334 22.8156 24.3363 21.4057 24.7765C20.6642 25.008 19.3357 25.008 18.5943 24.7765C17.4671 24.4246 16.5381 23.768 15.9374 22.8989C15.3485 22.0468 15.1449 21.4847 15.0006 20.3122C14.9452 19.8622 14.8609 19.4836 14.7928 19.3798C14.5018 18.9356 13.8183 18.7972 13.3758 19.0928ZM2.02247 19.9314C2.02281 20.1954 2.03515 20.295 2.05003 20.1528C2.06484 20.0105 2.06464 19.7945 2.04948 19.6728C2.03433 19.551 2.02219 19.6674 2.02247 19.9314ZM9.52617 25.6597C9.06818 25.963 8.35525 26.748 8.14226 27.1834C7.33141 28.8406 7.84747 30.7464 9.37141 31.7224C10.7956 32.6346 12.5902 32.4081 13.815 31.1616C14.24 30.729 14.6611 30.194 14.6061 30.1562C14.5933 30.1475 14.3594 30.0098 14.0862 29.8503C12.6238 28.9961 10.9274 27.2896 10.096 25.8367C9.97484 25.6248 9.86773 25.4514 9.85813 25.4514C9.84853 25.4514 9.69911 25.5452 9.52617 25.6597ZM29.854 25.9157C28.9754 27.3945 27.2581 29.1039 25.8646 29.8865C25.6752 29.9929 25.5201 30.1138 25.5201 30.1551C25.52 30.1964 25.6385 30.4124 25.7834 30.6351C26.8595 32.2892 28.9893 32.7676 30.6286 31.7236C32.3568 30.6229 32.7647 28.301 31.5196 26.6514C31.2509 26.2955 30.5904 25.6965 30.297 25.5428C30.1335 25.4572 30.1194 25.469 29.854 25.9157ZM16.541 31.4553C16.375 31.9926 16.3647 32.4384 16.5033 33.0971C16.7019 34.0413 17.2194 34.779 18.0742 35.3364C19.1968 36.0685 20.741 36.0498 21.92 35.29C23.1275 34.5118 23.7604 33.0807 23.5464 31.6125C23.5017 31.3051 23.451 31.0396 23.434 31.0226C23.417 31.0056 23.0694 31.0707 22.6615 31.1673C20.6847 31.6357 18.6825 31.5899 16.7981 31.0332C16.7055 31.0058 16.6532 31.0916 16.541 31.4553Z" fill="#323637"/>
</g>
<defs>
<clipPath id="clip0_5401_38249">
<rect width="36" height="36" fill="white" transform="translate(2 2)"/>
</clipPath>
</defs>
</svg>
