<svg width="40" height="40" viewBox="0 0 40 40" fill="none" xmlns="http://www.w3.org/2000/svg">
<g clip-path="url(#clip0_5401_38313)">
<path fill-rule="evenodd" clip-rule="evenodd" d="M19.5428 2.14447C19.3322 2.25247 18.7855 2.86278 17.3675 4.57264C16.3259 5.82877 15.4399 6.84261 15.3988 6.82552C15.3577 6.8085 13.6069 6.07873 11.508 5.20383C9.40928 4.32893 7.60071 3.5948 7.48898 3.57251C7.01817 3.47829 6.41503 3.91613 6.32031 4.42083C6.28382 4.61567 6.58828 5.75628 7.82859 10.0705C8.68331 13.0436 9.38264 15.5178 9.38264 15.5687C9.38264 15.6196 9.27632 15.7911 9.14631 15.9498C8.43398 16.8195 7.5022 18.554 7.06289 19.8282L6.8433 20.4649L6.4582 20.5457C5.08394 20.834 3.88314 22.0646 3.57996 23.4955C3.39433 24.3713 3.5024 25.1971 3.91127 26.0275C4.13599 26.4841 4.75952 27.2019 5.19046 27.5002L5.39275 27.6403L5.21106 28.4081C4.53684 31.2571 4.98839 34.2259 6.39829 36.2137C7.01859 37.0882 7.99994 37.7662 8.88243 37.9298C9.40028 38.0258 30.5994 38.0258 31.1172 37.9298C31.9997 37.7662 32.9811 37.0882 33.6014 36.2137C35.0119 34.225 35.4686 31.2154 34.7852 28.411L34.5988 27.6462L34.8052 27.5032C35.2402 27.2017 35.8629 26.4856 36.0884 26.0275C36.8454 24.4897 36.5677 22.785 35.3639 21.5812C34.8217 21.0389 34.1947 20.6827 33.5414 20.5457L33.1563 20.4649L32.9368 19.8282C32.4968 18.5523 31.7024 17.0632 30.9159 16.0401C30.6681 15.7177 30.6096 15.591 30.64 15.4425C30.6612 15.3388 31.3608 12.8829 32.1947 9.98508C33.0285 7.08715 33.7108 4.65293 33.7108 4.57566C33.7108 4.49832 33.6456 4.30039 33.5659 4.13586C33.3903 3.77318 32.9232 3.50797 32.563 3.56647C32.4394 3.5865 30.6143 4.32176 28.507 5.20032C26.3997 6.07887 24.642 6.81097 24.6009 6.82714C24.5597 6.84331 23.6738 5.82849 22.6321 4.572C20.3938 1.87222 20.2673 1.77279 19.5428 2.14447ZM18.2369 6.81167C16.4003 9.02813 16.1784 9.23197 15.6884 9.15244C15.5651 9.13247 14.0121 8.51105 12.2372 7.77165C10.4624 7.03217 9.00077 6.43662 8.98917 6.44822C8.97756 6.45975 9.4732 8.22432 10.0905 10.3694C10.7078 12.5145 11.2453 14.3883 11.2849 14.5332L11.3568 14.7969H19.9998H28.6428L28.7148 14.5332C28.7544 14.3883 29.2918 12.5145 29.9091 10.3694C30.5264 8.22432 31.0229 6.46053 31.0122 6.44998C31.0016 6.43936 29.5399 7.03836 27.7639 7.78107C24.2674 9.24336 24.0938 9.29475 23.6788 8.99185C23.5696 8.91211 22.7142 7.93168 21.778 6.81308C20.8417 5.69447 20.0484 4.77014 20.0151 4.75904C19.9817 4.74793 19.1815 5.67162 18.2369 6.81167ZM10.7084 17.3475C10.3439 17.8358 9.90196 18.5468 9.63372 19.0761L9.45639 19.426L9.7034 19.6429C10.3504 20.211 11.1947 20.4572 12.3006 20.4003C13.6621 20.3303 14.9773 19.8886 16.1475 19.1083C16.7281 18.7213 17.6646 17.8192 18.0503 17.2754L18.3121 16.9063L14.6735 16.9081L11.035 16.9098L10.7084 17.3475ZM21.9115 17.2362C22.0396 17.4177 22.3975 17.8232 22.7069 18.1374C23.8458 19.294 25.2683 20.0377 26.8789 20.3186C28.3197 20.5699 29.5081 20.3349 30.2962 19.6429L30.5433 19.426L30.3659 19.0761C30.1099 18.5709 29.6632 17.8539 29.2893 17.3483L28.9647 16.9092L25.3216 16.9077L21.6786 16.9063L21.9115 17.2362ZM19.6131 18.6724C19.1216 19.3598 18.096 20.3243 17.2753 20.8707C15.7789 21.8668 14.2267 22.3856 12.3945 22.5019C11.2248 22.5761 10.1295 22.3433 9.17191 21.8168C8.94297 21.6909 8.74645 21.6025 8.73513 21.6202C8.72388 21.6379 8.65138 21.7764 8.57404 21.9279C8.34855 22.3697 8.14078 22.4788 7.42696 22.5304C6.92746 22.5664 6.73825 22.6133 6.47803 22.7659C5.66036 23.245 5.35584 24.222 5.76703 25.0471C6.08899 25.6932 6.66028 26.0428 7.39856 26.0454C8.17945 26.0481 8.52088 26.3012 8.71987 27.0248C9.35317 29.3281 10.2403 30.9044 11.7733 32.4501C12.6811 33.3655 13.2498 33.8083 14.2304 34.3633C15.9519 35.3377 17.5676 35.7946 19.5639 35.8715C22.8847 35.9995 26.0511 34.7415 28.298 32.4012C29.7971 30.8399 30.6572 29.2891 31.2798 27.0248C31.4788 26.3012 31.8202 26.0481 32.6011 26.0454C33.3394 26.0428 33.9107 25.6932 34.2326 25.0471C34.6438 24.222 34.3393 23.245 33.5216 22.7659C33.2614 22.6133 33.0722 22.5664 32.5727 22.5304C31.8589 22.4788 31.6511 22.3697 31.4256 21.9279C31.3483 21.7764 31.2758 21.6379 31.2645 21.6202C31.2532 21.6025 31.0567 21.6909 30.8277 21.8168C29.8702 22.3433 28.7748 22.5761 27.6052 22.5019C25.773 22.3856 24.2208 21.8668 22.7244 20.8707C21.9037 20.3243 20.878 19.3598 20.3865 18.6724C20.1932 18.4019 20.0192 18.1806 19.9998 18.1806C19.9805 18.1806 19.8065 18.4019 19.6131 18.6724ZM15.31 24.0838C15.0992 24.1881 14.9735 24.3151 14.8706 24.5278C14.6893 24.9024 14.6893 25.0823 14.8712 25.458C15.0242 25.774 15.4458 26.0469 15.7811 26.0469C15.8727 26.0469 16.0823 25.9817 16.2468 25.9021C16.5628 25.7491 16.8358 25.3275 16.8358 24.9922C16.8358 24.657 16.5628 24.2354 16.2468 24.0824C15.87 23.9 15.6808 23.9003 15.31 24.0838ZM23.7475 24.0838C23.5367 24.1881 23.411 24.3151 23.3081 24.5278C23.1268 24.9024 23.1268 25.0823 23.3087 25.458C23.4617 25.774 23.8833 26.0469 24.2186 26.0469C24.5538 26.0469 24.9754 25.774 25.1284 25.458C25.2081 25.2934 25.2733 25.0838 25.2733 24.9922C25.2733 24.657 25.0003 24.2354 24.6843 24.0824C24.3075 23.9 24.1183 23.9003 23.7475 24.0838ZM7.05979 29.8262C6.9475 30.6171 7.01261 32.0667 7.1969 32.8796C7.47576 34.1099 8.06885 35.1729 8.73815 35.642L9.04281 35.8555L10.8825 35.8765L12.7223 35.8976L12.1951 35.5347C10.2395 34.1891 8.72957 32.403 7.65028 30.1584C7.39968 29.6374 7.18396 29.211 7.17089 29.211C7.15781 29.211 7.10789 29.4879 7.05979 29.8262ZM32.3499 30.1594C31.2902 32.3587 29.7246 34.2161 27.8397 35.5106L27.2772 35.8969L29.117 35.8762L30.9568 35.8555L31.2615 35.642C31.9359 35.1693 32.5184 34.1199 32.8143 32.8442C32.9364 32.3178 32.964 31.973 32.9647 30.9688C32.9651 30.292 32.9336 29.6118 32.8946 29.4571L32.8239 29.1758L32.3499 30.1594ZM16.1352 29.7207C15.62 29.9849 15.4325 30.5521 15.6847 31.0834C15.9539 31.6508 17.2597 32.4882 18.4212 32.8385C18.9708 33.0042 19.171 33.0282 19.9998 33.0282C20.8246 33.0282 21.03 33.0038 21.5669 32.8418C22.3888 32.5938 23.0328 32.2609 23.6695 31.755C24.2788 31.2709 24.4628 30.9616 24.4117 30.5082C24.3659 30.102 24.1409 29.8091 23.7637 29.6651C23.3172 29.4946 23.0512 29.569 22.4854 30.023C21.6777 30.6709 20.8948 30.9688 19.9998 30.9688C19.1187 30.9688 18.3107 30.6667 17.5598 30.0566C16.8911 29.5132 16.6505 29.4565 16.1352 29.7207Z" fill="#323637"/>
</g>
<defs>
<clipPath id="clip0_5401_38313">
<rect width="36" height="36" fill="white" transform="translate(2 2)"/>
</clipPath>
</defs>
</svg>
