<svg width="40" height="40" viewBox="0 0 40 40" fill="none" xmlns="http://www.w3.org/2000/svg">
<g clip-path="url(#clip0_5401_38321)">
<path fill-rule="evenodd" clip-rule="evenodd" d="M28.6757 2.11623C28.1658 2.3805 27.9449 2.99086 28.1822 3.47929C28.3003 3.72238 28.4979 3.8973 29.2928 4.46226C29.8822 4.88123 30.3544 5.16731 30.5022 5.19502C31.2487 5.33511 31.9251 4.59371 31.6929 3.89003C31.5845 3.56151 31.3822 3.37438 30.3721 2.6683C29.4013 1.98964 29.1055 1.89337 28.6757 2.11623ZM36.5139 2.13282C35.8565 2.43131 35.702 3.27824 36.2119 3.78807C36.7582 4.33438 37.7397 4.08341 37.9381 3.34654C38.078 2.82718 37.8235 2.29678 37.3368 2.09346C37.0383 1.96873 36.8562 1.97744 36.5139 2.13282ZM33.673 4.96647C33.521 5.06775 33.3447 5.30398 33.1657 5.64635C32.5774 6.77189 32.2796 7.02704 30.731 7.73237C30.1844 7.98135 29.5329 8.3205 29.2833 8.4861C28.7623 8.83157 28.0173 9.5923 27.7452 10.0566L27.5592 10.374L26.8615 9.68754C26.4779 9.30992 26.0787 8.96864 25.9746 8.92901C25.7318 8.83671 25.3758 8.83719 25.1302 8.9301C25.024 8.97029 24.3333 9.60395 23.5953 10.3383L22.2535 11.6734L21.7458 11.4225C20.777 10.9437 19.4224 10.5198 18.1143 10.2861C17.7784 10.2261 17.041 10.1948 15.9886 10.1959C14.6145 10.1973 14.2592 10.22 13.5765 10.3498C10.8796 10.8628 8.38872 12.1185 6.41846 13.9584C3.27665 16.8923 1.72357 20.8805 2.05649 25.1595C2.20069 27.0134 2.58682 28.4208 3.40885 30.0891C4.52163 32.3473 6.28426 34.3539 8.34285 35.7057C11.0657 37.494 14.027 38.2288 17.2914 37.9264C23.7742 37.326 28.9979 32.1245 29.7777 25.4931C29.8778 24.6423 29.822 22.4654 29.6808 21.7142C29.4433 20.4502 29.0401 19.1838 28.5734 18.2366L28.3291 17.7406L29.6641 16.4017C30.3984 15.6653 31.0315 14.9759 31.071 14.8698C31.1623 14.6246 31.163 14.2674 31.0726 14.0296C31.0339 13.9279 30.5836 13.4193 30.0718 12.8994C29.0407 11.8517 29.0708 11.9238 29.4138 11.3267C29.6547 10.9072 30.1493 10.3911 30.5168 10.1757C30.6843 10.0776 31.176 9.83408 31.6096 9.63454C32.7274 9.12011 33.3019 8.76265 33.8422 8.24514C34.6716 7.45054 35.3049 6.31143 35.2396 5.73166C35.1546 4.97806 34.2899 4.55573 33.673 4.96647ZM33.679 9.97136C33.309 10.1589 33.12 10.4637 33.12 10.8727C33.12 11.2536 33.1986 11.3995 33.6699 11.8937L34.0482 12.2903L33.6662 12.6823C33.2486 13.1107 33.1529 13.2605 33.1308 13.5199C33.0918 13.9794 33.1323 14.0928 33.4412 14.3888C33.7229 14.6588 33.7823 14.6856 34.0971 14.6856C34.531 14.6856 34.6483 14.6251 35.1371 14.1487L35.5312 13.7644L35.8914 14.1102C36.3887 14.5878 36.5693 14.6856 36.9531 14.6856C37.399 14.6856 37.7414 14.4516 37.8989 14.039C38.0843 13.5538 38.001 13.3044 37.4706 12.7549L37.0205 12.2887L37.4689 11.8134C37.8173 11.444 37.9278 11.2759 37.9644 11.059C38.099 10.2629 37.3159 9.61506 36.5859 9.91842C36.4397 9.97918 36.1425 10.204 35.9256 10.418L35.5313 10.8072L35.1004 10.3802C34.5116 9.79664 34.2003 9.70709 33.679 9.97136ZM24.7987 12.085L24.1143 12.7758L24.4208 13.0279C24.5894 13.1665 24.9906 13.5142 25.3122 13.8005C25.8146 14.2478 26.1031 14.5597 27.0762 15.708L27.2267 15.8856L27.9162 15.2012C28.2954 14.8248 28.6057 14.4851 28.6057 14.4463C28.6057 14.3551 25.6437 11.3942 25.5524 11.3942C25.5143 11.3942 25.1752 11.7051 24.7987 12.085ZM14.7947 12.2875C12.4604 12.5551 10.1217 13.5417 8.37713 14.995C6.24387 16.7722 4.9079 18.9858 4.32195 21.7142C4.17802 22.3845 4.16012 22.6441 4.16101 24.0457C4.16218 25.8441 4.25626 26.4711 4.74545 27.9407C6.85087 34.2656 14.2399 37.563 20.5407 34.9894C21.8389 34.4592 23.0215 33.6548 24.211 32.493C25.2698 31.4589 25.8615 30.6611 26.4722 29.444C27.3259 27.7428 27.715 26.0501 27.7165 24.0308C27.7176 22.7017 27.5897 21.7497 27.2669 20.6848C26.6634 18.6939 25.7736 17.2107 24.2859 15.7159C22.5206 13.9423 20.3728 12.817 17.9429 12.3926C17.1809 12.2596 15.5219 12.2042 14.7947 12.2875Z" fill="#323637"/>
</g>
<defs>
<clipPath id="clip0_5401_38321">
<rect width="36" height="36" fill="white" transform="translate(2 2)"/>
</clipPath>
</defs>
</svg>
