<svg width="40" height="40" viewBox="0 0 40 40" fill="none" xmlns="http://www.w3.org/2000/svg">
<g clip-path="url(#clip0_5401_38305)">
<path fill-rule="evenodd" clip-rule="evenodd" d="M22.6982 2.09961C19.92 2.49883 17.501 4.05835 15.9566 6.44615C15.3667 7.35815 14.9468 8.41086 14.6741 9.66174C14.4639 10.6262 14.4641 12.3756 14.6745 13.3614C15.1244 15.4687 16.2495 17.4204 17.7308 18.6628C17.9781 18.8703 18.181 19.0608 18.1816 19.0862C18.184 19.1794 17.2426 19.9112 16.742 20.2054C14.8201 21.3349 12.3465 21.4744 10.1859 20.575C9.33057 20.2189 8.53768 19.642 7.74993 18.8025C6.99503 17.998 6.86578 17.9086 6.45832 17.9086C6.06678 17.9086 5.92532 17.9874 5.39067 18.5041C3.72822 20.1105 2.71453 21.6971 2.25503 23.4118C2.11871 23.9206 2.1037 24.1385 2.10562 25.5886C2.10754 27.0028 2.12687 27.2881 2.26367 27.92C2.58267 29.393 3.10306 30.6159 3.97069 31.9314C4.51288 32.7535 5.92141 34.1899 6.7887 34.8052C8.38641 35.9386 10.4756 36.865 12.5883 37.3768C15.3993 38.0578 19.2273 38.1989 22.0228 37.7245C28.2145 36.6738 33.4336 32.4786 34.6467 27.5771C34.7861 27.0135 34.8081 26.7547 34.8096 25.6571C34.8115 24.2428 34.7346 23.7393 34.3316 22.5279C33.8524 21.0872 33.1104 19.9239 31.9202 18.747L31.0691 17.9055L31.3792 17.5248C31.5498 17.3155 31.8557 16.8918 32.059 16.5835L32.4286 16.0228L32.9686 15.9009C35.8347 15.2533 37.9314 12.7315 37.9314 9.93212C37.9314 9.45541 37.9071 9.32478 37.7913 9.17749C37.4763 8.7771 37.3158 8.72032 36.0984 8.57879C33.9136 8.32466 33.1652 8.24128 33.0628 8.2406C33.0013 8.24012 32.8663 8.03145 32.7269 7.72165C31.4821 4.95287 28.8149 2.80994 25.8598 2.20425C24.9433 2.01636 23.5892 1.97152 22.6982 2.09961ZM22.5028 4.26043C21.7553 4.42089 21.3676 4.55481 20.6691 4.89383C17.9569 6.21012 16.2729 9.26841 16.6044 12.2753C16.8524 14.5248 18.069 16.5011 19.9744 17.7495C20.7403 18.2513 20.925 18.4793 20.9254 18.9234C20.9257 19.3264 20.8142 19.5102 20.229 20.0706C18.6978 21.5372 17.6861 22.1972 16.1542 22.729C15.1125 23.0906 14.2771 23.2235 13.0742 23.2188C11.491 23.2126 10.4377 22.973 9.00575 22.2935C8.12289 21.8746 7.50541 21.4669 6.88875 20.896L6.41005 20.4528L6.13302 20.7407C5.32882 21.5763 4.60306 22.7897 4.31746 23.7761C4.17901 24.2545 4.16015 24.4685 4.16111 25.5543C4.16235 26.9275 4.29935 27.7947 4.67684 28.8186C5.3583 30.6667 6.62715 32.1973 8.53336 33.4706C9.71025 34.2567 11.6373 35.0311 13.3828 35.4195C14.8336 35.7423 15.6203 35.8189 17.8523 35.8548C20.1659 35.892 21.0474 35.8232 22.5714 35.486C25.8898 34.7518 28.9386 32.9294 30.8296 30.5496C31.7379 29.4067 32.2307 28.4715 32.5585 27.2686C32.8902 26.0511 32.7988 24.4028 32.3264 23.0857C31.7181 21.3896 30.5246 19.9811 28.8638 18.9992C28.1719 18.5902 28.1512 17.7764 28.818 17.2034C28.9841 17.0607 29.3102 16.7235 29.5427 16.454L29.9654 15.9641L29.6751 15.78C29.2255 15.4949 28.8807 15.1047 28.6475 14.6171C28.4381 14.1795 28.4338 14.1499 28.4127 12.9923C28.3938 11.9574 28.4093 11.7462 28.5388 11.2662C28.62 10.9653 28.7994 10.525 28.9375 10.2877C29.255 9.74197 29.9011 9.08704 30.4081 8.79698C30.6236 8.67369 30.7999 8.55445 30.7999 8.53209C30.7999 8.42368 30.2671 7.54247 29.9339 7.0997C28.826 5.62768 27.2079 4.61207 25.3685 4.23424C24.6424 4.0851 23.2609 4.09771 22.5028 4.26043ZM25.8285 8.3835C25.3854 8.52126 25.1085 8.89511 25.1085 9.35577C25.1085 9.99589 25.4886 10.3907 26.1103 10.3966C26.494 10.4002 26.7288 10.2777 26.9778 9.94412C27.5147 9.22501 26.6963 8.11374 25.8285 8.3835ZM31.9124 10.3979C31.3564 10.5715 30.9467 10.9128 30.6752 11.4286C30.5097 11.743 30.4927 11.8523 30.4696 12.7453L30.4443 13.7192L30.6289 13.9038C30.8099 14.0847 30.8257 14.0875 31.441 14.0459C33.2189 13.9256 34.7819 12.9884 35.4155 11.6628C35.5491 11.3831 35.6791 11.0409 35.7044 10.9023L35.7504 10.6504L35.4523 10.6093C34.663 10.5005 32.6914 10.2977 32.463 10.3017C32.3215 10.3043 32.0737 10.3475 31.9124 10.3979ZM22.6405 22.3396C21.7574 22.5325 21.0934 22.9233 20.112 23.8279C18.3697 25.4335 16.6622 26.0686 14.087 26.0686C13.206 26.0686 13.1106 26.081 12.9027 26.2228C12.3324 26.6122 12.304 27.1316 12.7965 28.1712C13.631 29.9328 15.1571 31.244 17.1823 31.9394C19.0312 32.5743 22.2878 32.5977 24.1461 31.9894C25.8647 31.4269 27.3375 30.0022 27.8922 28.3657C28.1405 27.6334 28.1966 26.5316 28.025 25.76C27.496 23.382 25.0323 21.817 22.6405 22.3396ZM23.1885 24.3609C22.5556 24.4842 22.2344 24.6746 21.5549 25.329C20.0601 26.7687 18.4144 27.6021 16.3738 27.9526C16.0388 28.0101 15.684 28.0576 15.5852 28.0582C15.1782 28.0606 15.1766 28.1655 15.5771 28.5735C16.7521 29.7704 18.4056 30.3446 20.6514 30.3357C22.3274 30.329 23.4699 30.1004 24.3282 29.5997C24.9037 29.2639 25.4975 28.6359 25.7802 28.064C26.0247 27.5693 26.0342 27.5228 26.0342 26.8264C26.0342 26.1731 26.0156 26.065 25.8426 25.7127C25.3709 24.752 24.2116 24.1616 23.1885 24.3609Z" fill="#323637"/>
</g>
<defs>
<clipPath id="clip0_5401_38305">
<rect width="36" height="36" fill="white" transform="translate(2 2)"/>
</clipPath>
</defs>
</svg>
