<svg width="40" height="40" viewBox="0 0 40 40" fill="none" xmlns="http://www.w3.org/2000/svg">
<g clip-path="url(#clip0_5401_38281)">
<path fill-rule="evenodd" clip-rule="evenodd" d="M19.5884 2.09661C19.2758 2.23554 19.1102 2.45394 18.7776 3.16584C18.0594 4.70349 16.6794 7.4855 16.6348 7.4855C16.608 7.4855 15.8235 7.20779 14.8913 6.86836C13.8171 6.47723 13.0961 6.25122 12.9225 6.25122C12.4163 6.25122 11.9431 6.73519 11.9429 7.25325C11.9428 7.37064 12.0943 7.97236 12.2796 8.59039C12.4648 9.20843 12.9465 10.8249 13.3499 12.1826C13.7534 13.5404 14.143 14.7493 14.2157 14.8692C14.2884 14.9891 14.4799 15.1511 14.6412 15.2292C14.9299 15.369 15.0153 15.3712 20.0044 15.3697C24.7987 15.3683 25.0894 15.3613 25.3549 15.2407C25.5164 15.1674 25.6955 15.0149 25.776 14.8822C25.8532 14.7552 26.2464 13.5404 26.6498 12.1826C27.0532 10.8249 27.5349 9.20843 27.7201 8.59039C27.9054 7.97236 28.0569 7.37064 28.0569 7.25325C28.0567 6.73492 27.5834 6.25122 27.0766 6.25122C26.9011 6.25122 26.1864 6.47702 25.0939 6.87775C24.0137 7.27396 23.3616 7.48036 23.3204 7.43915C23.2845 7.40328 22.7276 6.28043 22.0827 4.94397C21.4379 3.60751 20.8443 2.4407 20.7637 2.35094C20.4699 2.0242 19.9866 1.91963 19.5884 2.09661ZM19.2068 7.04514C18.7875 7.90962 18.3522 8.81003 18.2398 9.04598C18.1166 9.30443 17.9384 9.54882 17.7918 9.66066C17.4068 9.95428 17.0549 9.91218 15.751 9.4164C15.1491 9.18758 14.6427 9.01403 14.6259 9.03083C14.6091 9.0477 14.8355 9.85629 15.1291 10.8277C15.4227 11.7992 15.7065 12.7406 15.7598 12.9198L15.8566 13.2455H19.9999H24.1432L24.24 12.9198C24.2933 12.7406 24.5771 11.7992 24.8706 10.8277C25.1642 9.85629 25.3897 9.0468 25.3718 9.02891C25.3539 9.01101 25.0945 9.09172 24.7953 9.20822C23.4514 9.73156 22.8968 9.89462 22.6201 9.84786C22.1548 9.76927 21.9518 9.47243 20.9816 7.45122C20.4928 6.43293 20.0651 5.57133 20.0311 5.53656C19.9942 5.49871 19.6636 6.10372 19.2068 7.04514ZM13.862 17.7884C13.7374 17.8733 13.5708 18.0297 13.4919 18.1362C13.3508 18.3264 13.3481 18.3954 13.3296 22.1991L13.3109 26.0684H8.12275C3.02426 26.0684 2.92956 26.0708 2.6428 26.2096C2.43016 26.3125 2.31228 26.4308 2.2084 26.6453C2.06741 26.9366 2.06611 26.9955 2.08428 32.1219C2.10245 37.2344 2.10465 37.3066 2.24412 37.4934C2.32188 37.5975 2.47068 37.7463 2.57484 37.8241L2.76424 37.9655H19.9999H37.2355L37.4249 37.8241C37.529 37.7463 37.6778 37.5975 37.7556 37.4934C37.896 37.3053 37.8971 37.256 37.915 30.0013C37.9352 21.8636 37.9667 22.4193 37.4642 22.0359L37.222 21.8512L31.9571 21.8324L26.6922 21.8136L26.6717 20.0716C26.649 18.1329 26.6499 18.137 26.1377 17.7884L25.911 17.6341H19.9999H14.0887L13.862 17.7884ZM15.4399 27.7826V35.8741H19.9999H24.5599V27.7826V19.6912H19.9999H15.4399V27.7826ZM19.5086 22.6813C19.3893 22.7402 18.9211 23.1663 18.4682 23.6282C17.8111 24.2983 17.6352 24.5189 17.5975 24.7196C17.4618 25.4432 17.9077 25.9998 18.6231 25.9998H18.933L18.9522 29.1834C18.9707 32.2765 18.9753 32.3724 19.1127 32.5563C19.3742 32.9064 19.6033 33.0284 19.9999 33.0284C20.3965 33.0284 20.6256 32.9064 20.887 32.5562C21.026 32.3702 21.0288 32.29 21.047 27.894L21.0656 23.4211L20.9082 23.1234C20.6422 22.6203 20.0265 22.4259 19.5086 22.6813ZM26.6856 29.9084V35.8741H31.2456H35.8056V29.9084V23.9426H31.2456H26.6856V29.9084ZM4.19416 31.9998V35.8741H8.75415H13.3142V31.9998V28.1255H8.75415H4.19416V31.9998Z" fill="#323637"/>
</g>
<defs>
<clipPath id="clip0_5401_38281">
<rect width="36" height="36" fill="white" transform="translate(2 2)"/>
</clipPath>
</defs>
</svg>
