<svg width="40" height="40" viewBox="0 0 40 40" fill="none" xmlns="http://www.w3.org/2000/svg">
<path fill-rule="evenodd" clip-rule="evenodd" d="M19.4855 2.07501C14.8085 2.47718 10.1387 4.95754 7.23313 8.58298C4.96863 11.4085 3.7242 14.3412 3.26435 17.9362C3.12207 19.0484 3.15766 21.543 3.33149 22.6401C4.14756 27.7922 6.95144 32.1815 11.2477 35.0326C13.218 36.3401 15.7223 37.3379 18.0113 37.7276C21.752 38.3645 25.4094 37.8301 28.8455 36.1446C30.3963 35.3839 31.5519 34.6104 32.8555 33.4608C33.6357 32.7728 33.827 32.4299 33.6885 31.9678C33.5894 31.637 33.5211 31.5666 31.8944 30.1201C31.1981 29.501 30.1193 28.5411 29.497 27.9871C28.29 26.9125 26.8983 25.6756 25.177 24.1479C21.2603 20.6716 20.617 20.0865 20.617 20.0001C20.617 19.9138 21.2603 19.3286 25.177 15.8524C28.0977 13.26 29.9764 11.5883 31.8885 9.88015C32.5815 9.26095 33.2348 8.68467 33.3403 8.59937C33.4457 8.51407 33.5852 8.30479 33.6503 8.13425C33.7495 7.87471 33.7556 7.78035 33.6882 7.55523C33.5794 7.19222 33.3964 6.98918 32.4844 6.2196C28.8831 3.18099 24.1551 1.67352 19.4855 2.07501ZM19.5198 4.17199C15.5744 4.66269 12.5545 6.10728 9.88033 8.78294C8.30161 10.3625 7.24246 11.9575 6.36948 14.0697C4.8751 17.6853 4.84897 22.0309 6.29912 25.7601C8.34166 31.0128 13.0394 34.8039 18.6284 35.7097C19.5419 35.8577 21.8362 35.914 22.6944 35.8095C24.9843 35.5303 27.2915 34.759 29.0513 33.684C29.682 33.2988 31.0741 32.3025 31.0741 32.2363C31.0741 32.1904 29.3984 30.6674 27.985 29.4287C27.7053 29.1836 27.1673 28.7047 26.7896 28.3645C26.4117 28.0244 25.8558 27.5308 25.5541 27.2677C25.2524 27.0046 24.5427 26.3721 23.977 25.8622C23.4113 25.3524 22.717 24.7352 22.4341 24.4907C22.1513 24.2461 21.4551 23.6294 20.8871 23.1203C20.319 22.6111 19.4597 21.8437 18.9774 21.4151C18.3994 20.9014 18.0654 20.5516 17.9974 20.3889C17.8784 20.1042 17.9115 19.6989 18.074 19.4508C18.1341 19.359 18.6992 18.8279 19.3298 18.2705C19.9602 17.7133 20.8009 16.9635 21.1979 16.6045C21.595 16.2454 22.1508 15.7517 22.4331 15.5073C22.7154 15.2629 23.4097 14.6463 23.9759 14.1371C24.5422 13.6279 25.3758 12.8874 25.8284 12.4917C26.281 12.096 26.837 11.6023 27.0641 11.3948C27.2911 11.1871 27.7221 10.8013 28.0218 10.5373C30.1055 8.70189 31.0741 7.82081 31.0741 7.76081C31.0741 7.69299 29.6417 6.67519 29.0084 6.29297C27.2492 5.23121 24.9837 4.46918 22.7788 4.19743C22.2405 4.13112 19.9898 4.1135 19.5198 4.17199ZM20.258 6.42586C18.5916 6.87459 17.5864 8.55213 18.0098 10.1775C18.176 10.8161 18.3921 11.199 18.8414 11.6513C19.5832 12.3984 20.5836 12.7363 21.545 12.5644C22.9095 12.3206 23.9554 11.2534 24.1665 9.88947C24.4055 8.34497 23.3897 6.82659 21.8489 6.42525C21.3553 6.29667 20.7367 6.29695 20.258 6.42586ZM20.6171 8.48527C20.3026 8.64929 20.1864 8.77869 20.0627 9.10269C19.7246 9.98808 20.6803 10.8155 21.5413 10.3828C22.2636 10.02 22.2802 8.93997 21.5698 8.53265C21.2563 8.35293 20.9046 8.33544 20.6171 8.48527Z" fill="#323637"/>
<path d="M31.0741 20.3568C30.6508 18.7313 31.656 17.0538 33.3224 16.6051C33.8011 16.4762 34.4196 16.4759 34.9132 16.6045C36.4541 17.0058 37.4699 18.5242 37.2309 20.0687C37.0197 21.4327 35.9739 22.4998 34.6094 22.7437C33.648 22.9155 32.6476 22.5776 31.9058 21.8306C31.4565 21.3782 31.2404 20.9953 31.0741 20.3568Z" fill="#323637"/>
</svg>
