<svg width="44" height="45" viewBox="0 0 44 45" fill="none" xmlns="http://www.w3.org/2000/svg">
<path fill-rule="evenodd" clip-rule="evenodd" d="M20.1684 5.6522C16.0179 7.37319 12.5639 8.82948 12.4928 8.88844C12.2518 9.0885 12.1009 9.49455 12.1331 9.85687C12.1519 10.0693 13.2826 12.9224 14.9553 16.9787L17.7461 23.7462L20.9345 23.7463L24.123 23.7464L29.3135 21.5937C32.1682 20.4097 34.5871 19.3866 34.6888 19.32C34.9707 19.1354 35.1814 18.5074 35.0812 18.1506C34.9638 17.7326 28.9672 3.21081 28.8178 2.9829C28.671 2.75877 28.2031 2.51918 27.9167 2.5215C27.8057 2.52236 24.3189 3.93122 20.1684 5.6522ZM17.0586 9.64709C16.1676 9.864 15.6406 10.537 15.6406 11.4581C15.6406 12.4462 16.4769 13.2621 17.4883 13.2608C18.1459 13.2598 18.9247 12.6612 19.1522 11.9817C19.3874 11.2791 19.0943 10.3805 18.4952 9.96756C18.2345 9.78786 17.5401 9.54947 17.3594 9.57766C17.3357 9.58135 17.2004 9.61255 17.0586 9.64709ZM16.7922 10.8042C16.1945 11.4019 16.5703 12.3103 17.4172 12.3149C18.0774 12.3184 18.503 11.7577 18.3023 11.1493C18.1704 10.7497 17.8434 10.5121 17.4251 10.5121C17.1522 10.5121 17.0262 10.5702 16.7922 10.8042ZM23.011 12.4023C22.3306 12.6071 21.8081 13.2061 21.6955 13.9102C21.5615 14.7481 22.1537 15.6442 23.0049 15.8917C23.692 16.0915 24.2224 15.9462 24.7564 15.4122C25.2653 14.9034 25.4093 14.3815 25.2308 13.6933C24.985 12.7457 23.9227 12.1278 23.011 12.4023ZM22.8528 13.5133C22.3025 14.0635 22.666 15.0667 23.4156 15.0667C24.2089 15.0667 24.6355 14.3844 24.2765 13.69C24.1109 13.3699 23.9052 13.2621 23.46 13.2621C23.181 13.2621 23.0496 13.3165 22.8528 13.5133ZM28.8313 15.227C27.4716 15.8447 27.3952 17.7842 28.7031 18.4828C29.2536 18.7768 30.0762 18.734 30.5799 18.3849C31.0261 18.0757 31.368 17.419 31.3653 16.8761C31.3591 15.5876 29.9936 14.699 28.8313 15.227ZM29.3333 15.988C29.0407 16.0416 28.7199 16.394 28.6566 16.731C28.5884 17.0947 28.8051 17.5369 29.1375 17.7125C29.3999 17.851 29.9542 17.7918 30.1629 17.6029C30.8826 16.9517 30.2968 15.8116 29.3333 15.988ZM9.51689 24.8822C9.31984 24.9968 9.12716 25.208 9.02275 25.4237C8.8556 25.769 8.85156 25.9639 8.85156 33.7671V41.7569L9.04492 42.1403C9.18663 42.4214 9.34149 42.5759 9.625 42.7188L10.0117 42.9138L18.0898 42.8906L26.168 42.8675L26.4573 42.6612C26.6164 42.5477 26.8186 42.2963 26.9066 42.1026C27.0589 41.7673 27.0666 41.3665 27.0684 33.7638C27.0703 25.929 27.067 25.7706 26.8971 25.4279C26.8019 25.2357 26.6183 25.0011 26.4889 24.9066C26.2583 24.7379 26.1018 24.7344 18.0469 24.7145L9.83984 24.6942L9.51689 24.8822ZM11.9883 26.6627C11.0969 26.8797 10.5703 27.5526 10.5703 28.4745C10.5703 29.8244 11.9892 30.6553 13.2208 30.0267C13.6183 29.8238 13.7823 29.6414 14.0012 29.1589C14.4641 28.1384 13.8851 26.9785 12.7617 26.6759C12.3813 26.5734 12.3567 26.573 11.9883 26.6627ZM23.0779 26.7084C22.5381 26.8532 21.9728 27.4201 21.8265 27.9634C21.3678 29.6671 23.4456 30.9732 24.746 29.7984C25.1787 29.4076 25.3639 28.9986 25.3639 28.4342C25.3639 27.2209 24.264 26.3906 23.0779 26.7084ZM11.7219 27.8199C11.1293 28.4124 11.4997 29.3258 12.3344 29.3305C12.7591 29.3328 13.0414 29.1462 13.2047 28.7552C13.453 28.1609 13.0146 27.5277 12.3548 27.5277C12.0819 27.5277 11.9559 27.5859 11.7219 27.8199ZM23.0413 27.6678C22.3024 28.1854 22.675 29.3354 23.58 29.3305C24.1258 29.3275 24.4922 28.9474 24.4922 28.3841C24.4922 27.9735 24.0145 27.5277 23.5746 27.5277C23.3913 27.5277 23.1513 27.5908 23.0413 27.6678ZM17.2305 32.1594C15.7856 32.8283 15.8234 34.8588 17.2922 35.4723C18.4405 35.952 19.7618 35.0578 19.7618 33.8011C19.7618 32.5143 18.3881 31.6234 17.2305 32.1594ZM17.5109 32.9903C17.2528 33.1304 17.0156 33.5186 17.0156 33.8011C17.0156 34.2566 17.5055 34.7464 17.9609 34.7464C18.4164 34.7464 18.9063 34.2566 18.9063 33.8011C18.9063 33.51 18.665 33.1266 18.3935 32.9862C18.08 32.8241 17.815 32.8253 17.5109 32.9903ZM11.8164 37.4109C11.4451 37.5269 10.9361 37.9758 10.7397 38.3607C10.5339 38.7641 10.5177 39.4387 10.7033 39.8827C11.3252 41.3711 13.4706 41.3047 14.0533 39.7792C14.4664 38.6975 13.6728 37.4723 12.4912 37.3675C12.2619 37.3472 11.9582 37.3667 11.8164 37.4109ZM23.0214 37.4431C22.5135 37.6246 22.2001 37.9004 21.9644 38.3732C21.5863 39.1321 21.7067 39.8055 22.332 40.429C22.9306 41.0258 23.6883 41.1374 24.4492 40.7409C25.1918 40.3539 25.5791 39.3086 25.2756 38.5107C25.1211 38.1046 24.5958 37.6045 24.1722 37.4603C23.6972 37.2983 23.4373 37.2945 23.0214 37.4431ZM11.805 38.4221C11.334 38.8037 11.2999 39.3604 11.7219 39.7824C12.2225 40.283 12.9335 40.1464 13.2047 39.4974C13.3593 39.1273 13.2421 38.6998 12.9158 38.4431C12.6393 38.2255 12.0612 38.2147 11.805 38.4221ZM22.9915 38.4632C22.3649 39.0112 22.7135 40.0746 23.5198 40.0746C24.295 40.0746 24.7174 39.3845 24.3624 38.6978C24.1979 38.3797 23.9913 38.2699 23.5574 38.2699C23.3228 38.2699 23.1421 38.3317 22.9915 38.4632Z" fill="#372311"/>
</svg>
