<svg width="40" height="40" viewBox="0 0 40 40" fill="none" xmlns="http://www.w3.org/2000/svg">
<g clip-path="url(#clip0_5401_38257)">
<path fill-rule="evenodd" clip-rule="evenodd" d="M36.0088 2.26854C33.1277 3.23683 31.8642 3.71245 31.6804 3.89793C31.5308 4.04892 31.3241 4.57583 30.7305 6.31946L29.9719 8.54803L28.7806 9.74042L27.5893 10.9327L27.0052 10.4767C25.0372 8.93992 22.9208 7.93144 20.5805 7.41523C18.4269 6.94024 15.8292 6.94456 13.6888 7.42675C13.0379 7.57336 11.7049 7.97683 11.3573 8.13242C11.2442 8.18303 10.9202 8.32483 10.6373 8.44744C9.61309 8.8915 8.03402 9.86625 7.20877 10.564C6.59066 11.0865 6.63955 11.0639 6.3698 10.9512C5.9426 10.7727 5.26319 10.6986 4.7729 10.7769C2.56271 11.1299 1.4321 13.51 2.53212 15.4939C2.7785 15.9382 4.75103 17.8917 5.1929 18.129C5.59418 18.3446 6.28456 18.5227 6.72438 18.5241C7.1849 18.5257 7.87089 18.3295 8.2994 18.0736C8.51121 17.9472 9.2151 17.3247 9.87099 16.6837C11.1684 15.4157 11.7913 14.9289 12.7718 14.4161C14.1988 13.6699 15.5184 13.3543 17.1859 13.3605C19.0052 13.3673 20.4683 13.76 21.9859 14.649C22.4281 14.908 23.0488 15.361 23.0488 15.4247C23.0488 15.4519 21.1587 17.364 18.8486 19.6739L14.6484 23.8737H11.7835C9.50968 23.8737 8.87313 23.8931 8.698 23.9677C8.57334 24.0209 7.09768 25.4264 5.30653 27.1981C1.90079 30.5668 1.92842 30.5337 2.03711 31.113C2.09718 31.4332 2.44579 31.7938 2.78673 31.8885C2.9631 31.9375 3.93064 31.9645 5.51162 31.9647L7.96305 31.9652L7.96346 34.4509C7.96367 36.0569 7.99069 37.0333 8.03972 37.21C8.19345 37.7638 8.82074 38.1118 9.35018 37.937C9.62694 37.8456 15.9424 31.5508 16.0513 31.2578C16.097 31.1349 16.1231 30.0274 16.1231 28.2066V25.3484L20.3229 21.1482C22.6328 18.8381 24.5449 16.948 24.5721 16.948C24.6358 16.948 25.0888 17.5687 25.3478 18.0109C26.238 19.5306 26.6325 20.9991 26.6373 22.8109C26.6416 24.4805 26.3258 25.8001 25.5807 27.225C25.0679 28.2055 24.5811 28.8284 23.3131 30.1258C22.0652 31.4027 21.7571 31.8299 21.5829 32.5246C21.4451 33.074 21.4437 33.4496 21.5773 34.0163C21.7489 34.7445 21.9781 35.0715 23.1303 36.2325C24.0722 37.1815 24.2693 37.3465 24.7125 37.557C25.2851 37.8289 25.9323 37.9576 26.4003 37.8927C27.9156 37.6824 28.9896 36.6657 29.2199 35.2239C29.2982 34.7336 29.2241 34.0542 29.0456 33.627C28.9322 33.3556 28.8977 33.4263 29.4887 32.7194C29.9126 32.2124 30.4527 31.3985 30.9776 30.4757C32.2759 28.193 32.9317 25.619 32.9275 22.8224C32.922 19.1221 31.8265 15.9686 29.5086 12.9806L29.0641 12.4075L30.2564 11.2162L31.4488 10.0249L33.6773 9.26632C35.421 8.67269 35.9479 8.46602 36.0989 8.3164C36.2456 8.17103 36.4323 7.72408 36.8779 6.45091C37.9011 3.52785 38.0201 3.13665 37.9692 2.86504C37.8855 2.41912 37.3879 1.9959 36.9538 2.00152C36.8678 2.00262 36.4425 2.12275 36.0088 2.26854ZM34.1783 5.09937L33.2048 5.44408L32.8958 6.41073C32.7259 6.94243 32.5944 7.38513 32.6038 7.39445C32.6131 7.40385 33.0562 7.27041 33.5883 7.09795L34.5559 6.78437L34.8796 5.84906C35.0577 5.33464 35.2182 4.87521 35.2363 4.82803C35.2817 4.70961 35.2723 4.71201 34.1783 5.09937ZM15.3103 9.24142C13.4 9.50076 11.2957 10.2785 9.71163 11.3106C8.91098 11.8321 8.40136 12.2468 7.51329 13.0991C7.11524 13.4812 6.75832 13.7937 6.72026 13.7937C6.68214 13.7937 6.46888 13.6179 6.24637 13.403C5.74792 12.9218 5.60337 12.8392 5.25338 12.8361C4.66586 12.831 4.19162 13.2878 4.19162 13.859C4.19162 14.3018 4.41763 14.6271 5.36461 15.5472C5.9945 16.1592 6.20303 16.3207 6.4407 16.3807C7.01608 16.526 7.10728 16.465 8.88897 14.7424C9.79076 13.8705 10.377 13.3969 11.0661 12.9832C13.1276 11.7459 15.3313 11.177 17.6818 11.2755L18.5894 11.3136L18.6557 11.0623C18.9322 10.0133 19.0827 9.32481 19.0441 9.28613C18.8799 9.12204 16.4076 9.09242 15.3103 9.24142ZM21.1288 9.78444C21.1288 9.8044 21.0208 10.2467 20.8888 10.7672C20.7568 11.2877 20.6488 11.7313 20.6488 11.7529C20.6488 11.7745 20.9097 11.8866 21.2285 12.002C22.2547 12.3733 23.2923 12.9388 24.1066 13.5703L24.5815 13.9388L25.3237 13.1989C25.7319 12.7919 26.0659 12.4398 26.0659 12.4165C26.0659 12.3546 25.3673 11.8173 24.6945 11.3617C23.6262 10.6381 21.1288 9.5334 21.1288 9.78444ZM26.8022 14.6688L26.0665 15.4069L26.4296 15.886C27.0758 16.7386 27.6291 17.7574 27.9948 18.7683C28.1102 19.0871 28.2223 19.348 28.2439 19.348C28.3332 19.348 30.215 18.8561 30.2467 18.8245C30.3838 18.6873 29.2537 16.2162 28.6359 15.3023C28.2235 14.6922 27.634 13.9316 27.5733 13.9312C27.5539 13.931 27.2068 14.263 26.8022 14.6688ZM29.7688 21.1251C29.3728 21.2283 28.9665 21.3334 28.866 21.3587L28.6831 21.4049L28.7212 22.3139C28.8564 25.5368 27.7038 28.5835 25.4796 30.8828C23.478 32.952 23.4674 32.9673 23.6161 33.5561C23.6761 33.7938 23.8376 34.0023 24.4496 34.6322C24.8672 35.0619 25.346 35.5016 25.5136 35.6093C26.229 36.0689 27.0675 35.678 27.1473 34.8478C27.1862 34.4426 27.0861 34.2456 26.5795 33.731C26.3661 33.5142 26.2019 33.3071 26.2144 33.2708C26.2271 33.2344 26.5478 32.8717 26.9272 32.4649C28.1897 31.111 28.81 30.2422 29.4518 28.929C30.4727 26.8397 30.9105 24.8012 30.8466 22.4337C30.8278 21.736 30.7902 21.1111 30.7632 21.0452C30.7009 20.8931 30.6416 20.8978 29.7688 21.1251ZM7.57398 27.8821L5.59734 29.8334L7.14068 29.8364L8.68394 29.8394L10.589 27.9335C11.6368 26.8853 12.4722 26.0058 12.4457 25.9792C12.4191 25.9526 11.7568 25.9309 10.974 25.9309H9.55062L7.57398 27.8821ZM12.0216 29.4495L10.0888 31.3832V32.8909V34.3986L12.0773 32.4109L14.0659 30.4232V29.0039C14.0659 28.2234 14.0408 27.5692 14.0102 27.5503C13.9795 27.5313 13.0847 28.3859 12.0216 29.4495Z" fill="#323637"/>
</g>
<defs>
<clipPath id="clip0_5401_38257">
<rect width="36" height="36" fill="white" transform="translate(2 2)"/>
</clipPath>
</defs>
</svg>
