<svg width="40" height="40" viewBox="0 0 40 40" fill="none" xmlns="http://www.w3.org/2000/svg">
<path fill-rule="evenodd" clip-rule="evenodd" d="M23.223 6.4355C20.0022 6.71513 17.041 8.09582 14.7516 10.3851C14.1592 10.9777 13.4984 11.768 13.1495 12.3016L12.9373 12.6261L10.7709 12.6274C8.65069 12.6286 8.59831 12.6319 8.30962 12.7846C7.61849 13.1501 7.57721 14.0919 8.23316 14.5301C8.45911 14.681 8.51561 14.6857 10.0977 14.6857C10.995 14.6857 11.743 14.7088 11.7598 14.7372C11.7766 14.7654 11.7029 15.02 11.5961 15.3029C11.4892 15.5857 11.3307 16.0486 11.2439 16.3314L11.0859 16.8457L7.72279 16.88C3.93044 16.9187 4.12944 16.8889 3.85337 17.4592C3.66734 17.8434 3.71013 18.2229 3.97481 18.5375C4.31081 18.9367 4.31499 18.9372 7.6813 18.9372H10.7612V19.9984V21.0597L6.7285 21.0784C2.77742 21.0968 2.69198 21.1 2.50649 21.2386C2.02258 21.5999 1.89703 22.0408 2.13689 22.5363C2.41941 23.1199 2.10693 23.0813 6.86564 23.12L11.0859 23.1543L11.2439 23.6686C11.3307 23.9514 11.4892 24.4143 11.5961 24.6972C11.7029 24.98 11.7766 25.2346 11.7598 25.2629C11.743 25.2912 10.995 25.3143 10.0977 25.3143C8.51561 25.3143 8.45911 25.319 8.23316 25.47C7.57721 25.9081 7.61849 26.85 8.30962 27.2154C8.59844 27.3682 8.6496 27.3714 10.7709 27.3716L12.9373 27.3717L13.1228 27.663C13.8754 28.8453 15.3819 30.3393 16.798 31.3077C20.171 33.6145 24.6559 34.2256 28.6318 32.92C32.4789 31.6567 35.5653 28.7071 37.0984 24.8287C37.7739 23.1196 38.1022 20.858 37.9436 19.0061C37.7746 17.0327 37.3912 15.6614 36.5158 13.8986C34.4454 9.72946 30.3532 6.92311 25.6672 6.45895C25.0004 6.39292 23.8415 6.38174 23.223 6.4355ZM22.3316 8.62553C20.5933 8.93911 18.9188 9.68524 17.371 10.836C16.3367 11.6049 15.4474 12.5702 14.6438 13.7963C14.2522 14.3938 13.7944 15.2696 13.7944 15.4214C13.7944 15.4556 13.9719 15.5378 14.1887 15.6041C14.4055 15.6704 15.4485 16.0036 16.5063 16.3446L18.4295 16.9646L18.881 16.6309C19.1293 16.4473 20.2302 15.6492 21.3274 14.8572L23.3224 13.4172L23.3241 10.9657L23.3259 8.51431L23.103 8.52048C22.9804 8.52384 22.6333 8.57116 22.3316 8.62553ZM25.3993 10.9622L25.4173 13.4102L26.6922 14.3394C29.3549 16.2802 30.1425 16.8474 30.2482 16.9007C30.3188 16.9361 30.9502 16.7626 32.0359 16.4093C32.959 16.1089 33.9845 15.777 34.3144 15.6717C34.7287 15.5396 34.9141 15.4476 34.9133 15.3745C34.9116 15.1984 34.2232 13.9702 33.7487 13.2963C33.0948 12.3678 31.821 11.1184 30.9092 10.5112C29.7263 9.72363 28.584 9.1885 27.3633 8.85024C26.8543 8.70919 25.7992 8.51431 25.5446 8.51431H25.3813L25.3993 10.9622ZM23.5659 15.7922C20.5607 17.9714 19.9667 18.4078 19.9056 18.4814C19.8572 18.5398 20.0967 19.3589 20.7062 21.2195L21.5759 23.8743H24.3677H27.1596L28.0199 21.2506C28.493 19.8076 28.8792 18.5964 28.878 18.5592C28.8768 18.522 28.8074 18.4419 28.7237 18.3814C28.64 18.3209 27.8773 17.7647 27.0287 17.1455C25.3208 15.8991 24.3802 15.2315 24.344 15.2398C24.3308 15.2427 23.9807 15.4914 23.5659 15.7922ZM13.0467 17.7923C12.4574 20.7803 13.1122 23.9987 14.807 26.4457C15.5397 27.5035 16.6917 28.7612 16.8079 28.6302C16.8367 28.5978 17.3165 27.9389 17.8743 27.1657C18.4321 26.3926 19.0587 25.5308 19.2666 25.2506C19.7044 24.6608 19.7182 24.8994 19.1458 23.1543C18.9479 22.5509 18.5651 21.3629 18.2951 20.5143L17.8042 18.9714L16.8108 18.6426C16.019 18.3806 13.5809 17.5837 13.1986 17.462C13.1479 17.4459 13.0902 17.5714 13.0467 17.7923ZM34.8801 17.6731C34.503 17.7969 33.4619 18.135 32.5665 18.4245L30.9387 18.9509L30.3846 20.6754C30.0799 21.624 29.6613 22.9186 29.4544 23.5523L29.0783 24.7046L29.5788 25.4037C30.6692 26.9268 31.7798 28.4407 31.893 28.5586C32.0076 28.6777 32.0388 28.6551 32.6577 28.0039C34.2024 26.379 35.2253 24.4325 35.6748 22.2629C35.8822 21.2617 35.93 19.3554 35.773 18.3514C35.7084 17.9381 35.6353 17.5659 35.6107 17.524C35.5799 17.4719 35.3509 17.5186 34.8801 17.6731ZM21.1795 26.1543C19.6949 28.1623 18.4881 29.8513 18.4993 29.9055C18.5151 29.9812 19.6073 30.5316 20.2059 30.7655C23.2028 31.9362 26.5586 31.784 29.4405 30.3464C29.843 30.1456 30.1874 29.9569 30.2059 29.927C30.2244 29.8971 29.7633 29.2096 29.1812 28.3992C28.5991 27.5887 27.9636 26.7021 27.7689 26.4286L27.415 25.9314H24.3796H21.3443L21.1795 26.1543Z" fill="#323637"/>
</svg>
