<svg width="40" height="40" viewBox="0 0 40 40" fill="none" xmlns="http://www.w3.org/2000/svg">
<g clip-path="url(#clip0_5401_38241)">
<path fill-rule="evenodd" clip-rule="evenodd" d="M19.3831 2.09597C19.1304 2.20959 18.9019 2.45124 18.8048 2.70756C18.7544 2.84058 18.7316 5.57789 18.7316 11.5086C18.7316 21.0911 18.6964 20.3923 19.1988 20.7755L19.4409 20.9602H22.6059H25.7709L26.013 20.7755C26.475 20.4232 26.4802 20.3896 26.4802 17.7466V15.3766L28.9439 15.357C31.3202 15.3381 31.4143 15.3323 31.601 15.1939C31.7074 15.115 31.8648 14.9471 31.9507 14.8209L32.107 14.5913L32.0879 11.4329C32.0695 8.39885 32.0634 8.26712 31.9317 8.08698C31.8562 7.98378 31.669 7.83725 31.5157 7.76127C31.2524 7.63078 31.1047 7.6231 28.861 7.6231H26.4852L26.4655 5.15946C26.4467 2.79423 26.4403 2.68822 26.3045 2.50657C26.2268 2.40248 26.078 2.25368 25.9739 2.17592C25.79 2.03857 25.6961 2.03412 22.6867 2.01903C20.2085 2.00655 19.5476 2.02198 19.3831 2.09597ZM20.8574 5.87453V7.6231H22.6059H24.3545V5.87453V4.12596H22.6059H20.8574V5.87453ZM20.8574 11.4974V13.246H22.6059H24.3545V11.4974V9.74881H22.6059H20.8574V11.4974ZM26.4802 11.4974V13.246H28.2631H30.0459V11.4974V9.74881H28.2631H26.4802V11.4974ZM20.8574 17.1202V18.8688H22.6059H24.3545V17.1202V15.3717H22.6059H20.8574V17.1202ZM2.65164 19.1022C2.39916 19.2151 2.17055 19.4567 2.07338 19.7133C1.96655 19.9952 1.97128 36.9334 2.07832 37.2529C2.12124 37.381 2.2215 37.5593 2.30118 37.6491C2.6321 38.022 1.53798 38.0002 19.9936 38.0002C31.9436 38.0002 37.158 37.9781 37.2929 37.9271C37.5755 37.82 37.794 37.5939 37.9399 37.2574C38.0638 36.9719 38.0688 36.6252 38.0688 28.3562C38.0688 22.6376 38.0458 19.7663 38.0002 19.7945C37.9625 19.8178 37.9316 19.7899 37.9316 19.7324C37.9316 19.5523 37.5188 19.1481 37.2567 19.0715C37.0905 19.023 35.9863 19.0053 33.9834 19.0193L30.9608 19.0402L30.7018 19.2379C30.2582 19.5763 30.2516 19.6201 30.2516 22.2609V24.6288H27.9005C25.5984 24.6288 25.5429 24.632 25.2439 24.7831C25.0759 24.868 24.8688 25.0422 24.7836 25.1704C24.6302 25.4013 24.6288 25.4255 24.6288 27.8275V30.2517H17.1888H9.74879V28.5063V26.761L12.2124 26.7406C14.5882 26.721 14.683 26.7151 14.8696 26.5768C14.976 26.4979 15.1325 26.3313 15.2174 26.2066L15.3716 25.9799V22.8802V19.7805L15.2174 19.5538C15.1325 19.4292 14.976 19.2626 14.8695 19.1837C14.677 19.0411 14.6434 19.0402 8.76664 19.0252C3.94593 19.0129 2.81944 19.0271 2.65164 19.1022ZM2.03347 28.4688C2.03347 33.2397 2.04163 35.1913 2.05164 32.8059C2.06166 30.4205 2.06166 26.5171 2.05164 24.1317C2.04163 21.7462 2.03347 23.698 2.03347 28.4688ZM4.12593 22.8802V24.6288H5.8745H7.62307V22.8802V21.1317H5.8745H4.12593V22.8802ZM9.74879 22.8802V24.6288H11.4974H13.2459L13.2461 24.166C13.2462 23.9114 13.2666 23.1246 13.2913 22.4174L13.3362 21.1317H11.5425H9.74879V22.8802ZM32.3774 22.8802V24.6288H34.1259H35.8745V22.8802V21.1317H34.1259H32.3774V22.8802ZM4.12593 28.5031V30.2517H5.8745H7.62307V28.5031V26.7545H5.8745H4.12593V28.5031ZM26.6859 28.5031V30.2517H28.4688H30.2516V28.5031V26.7545H28.4688H26.6859V28.5031ZM32.3774 28.5031V30.2517H34.1259H35.8745V28.5031V26.7545H34.1259H32.3774V28.5031ZM4.12593 34.1259V35.8745H5.8745H7.62307V34.1259V32.3774H5.8745H4.12593V34.1259ZM9.74879 34.1259V35.8745H11.5316H13.3145V34.1259V32.3774H11.5316H9.74879V34.1259ZM15.4402 34.1259V35.8745H17.1888H18.9374V34.1259V32.3774H17.1888H15.4402V34.1259ZM21.0631 34.1259V35.8745H22.8459H24.6288V34.1259V32.3774H22.8459H21.0631V34.1259ZM26.6859 34.1259V35.8745H28.4688H30.2516V34.1259V32.3774H28.4688H26.6859V34.1259ZM32.3774 34.1259V35.8745H34.1259H35.8745V34.1259V32.3774H34.1259H32.3774V34.1259Z" fill="#323637"/>
</g>
<defs>
<clipPath id="clip0_5401_38241">
<rect width="36" height="36" fill="white" transform="translate(2 2)"/>
</clipPath>
</defs>
</svg>
