<svg width="40" height="40" viewBox="0 0 40 40" fill="none" xmlns="http://www.w3.org/2000/svg">
<g clip-path="url(#clip0_5401_3490)">
<path fill-rule="evenodd" clip-rule="evenodd" d="M20.1133 2.59859C19.8547 2.71348 19.6202 2.96112 19.5204 3.22458C19.4699 3.35775 19.4454 4.99069 19.4454 8.21382V13.005L15.9189 19.0549C13.9794 22.3823 12.352 25.1641 12.3026 25.2367C12.2198 25.3581 12.1931 25.3379 11.9641 24.9798C11.6571 24.4999 11.4369 24.3216 11.076 24.2607C10.7175 24.2001 10.259 24.4126 10.0525 24.735C9.34356 25.8415 2.61719 36.9987 2.55981 37.1633C2.4028 37.6138 2.69671 38.2015 3.18004 38.4034C3.37178 38.4835 6.22372 38.4993 20.4932 38.4993C32.423 38.4993 37.6365 38.4767 37.7748 38.4243C38.0486 38.3206 38.2777 38.0923 38.4361 37.7654C38.5631 37.5035 38.6256 37.0847 38.5223 37.188C38.4959 37.2144 38.4368 37.1485 38.3909 37.0415C38.2333 36.6736 30.9666 24.7531 30.7812 24.5583C30.5269 24.291 30.1695 24.1916 29.8103 24.2884C29.5024 24.3713 29.2679 24.5878 28.9755 25.0596C28.8 25.3427 28.7789 25.3561 28.6966 25.2354C28.6476 25.1636 27.0207 22.3823 25.0812 19.0549L21.5547 13.005V11.8674V10.7297L24.9638 10.7103L28.3728 10.6907L28.6277 10.4358C28.8248 10.2386 28.8907 10.1082 28.9187 9.8599C28.9386 9.68335 28.9363 9.46587 28.9138 9.37657C28.8911 9.28721 28.4927 8.75768 28.0283 8.19968L27.184 7.18528L27.4843 6.82859C28.3724 5.7739 28.7855 5.26076 28.8573 5.12309C28.993 4.86328 28.9547 4.37384 28.7779 4.10932C28.4495 3.61763 28.5053 3.62452 24.8496 3.62445L21.5704 3.62431L21.5246 3.38025C21.4399 2.92892 20.9255 2.49453 20.4847 2.50205C20.3965 2.5036 20.2293 2.54698 20.1133 2.59859ZM21.5547 7.21025V8.68681H23.5938C24.7153 8.68681 25.6329 8.66649 25.6329 8.64167C25.6329 8.61685 25.4895 8.42869 25.3143 8.22359C24.8984 7.73689 24.7901 7.51871 24.7895 7.16735C24.7891 6.87949 24.9524 6.56175 25.3096 6.15556C25.7141 5.69536 25.8691 5.73368 23.6024 5.73368H21.5547V7.21025ZM18.9886 17.9367C18.1869 19.3116 17.5425 20.4479 17.5566 20.4618C17.5706 20.4757 17.7707 20.4074 18.0012 20.3102C18.4821 20.1072 18.827 20.1186 19.1496 20.3483C19.2613 20.4279 19.6029 20.8569 19.9088 21.3018C20.2146 21.7467 20.4807 22.1111 20.5 22.1115C20.5194 22.112 20.7883 21.746 21.0977 21.2983C21.4071 20.8507 21.7487 20.4213 21.8569 20.3441C22.1729 20.1186 22.5205 20.1082 22.9989 20.3102C23.2294 20.4074 23.4295 20.4757 23.4435 20.4618C23.4826 20.4232 20.5616 15.4368 20.5 15.4368C20.4704 15.4368 19.7902 16.5617 18.9886 17.9367ZM16.8744 23.0816L15.6746 23.6164L14.5892 25.4767C13.9923 26.4998 13.4945 27.3615 13.4829 27.3914C13.4713 27.4214 14.6785 29.4504 16.1656 31.9003L18.8692 36.3548H20.5H22.1309L24.8345 31.9003C26.3216 29.4504 27.5288 27.4214 27.5172 27.3914C27.5056 27.3615 27.0061 26.4969 26.4071 25.4703L25.3181 23.6036L24.0992 23.071C23.4288 22.7781 22.8557 22.5384 22.8256 22.5384C22.7955 22.5384 22.4194 23.0405 21.9895 23.6542C21.1684 24.8268 20.9773 24.9993 20.5 24.9993C20.0228 24.9993 19.8317 24.8268 19.0105 23.6542C18.5807 23.0405 18.1943 22.5403 18.1517 22.5426C18.1091 22.5449 17.5343 22.7875 16.8744 23.0816ZM8.1756 31.8363C6.67583 34.3126 5.46055 36.3504 5.47483 36.3648C5.48917 36.3791 7.95876 36.3827 10.9628 36.3728L16.4247 36.3548L13.7196 31.8968C12.2317 29.4448 10.9892 27.4151 10.9584 27.3863C10.9276 27.3575 9.67536 29.36 8.1756 31.8363ZM29.9711 27.467C29.9112 27.5599 28.6725 29.5977 27.2185 31.9954L24.5749 36.3548L30.037 36.3728C33.0412 36.3827 35.511 36.379 35.5255 36.3646C35.5399 36.3501 34.3541 34.3644 32.8905 31.952C31.4269 29.5395 30.1957 27.5055 30.1547 27.4318C30.0832 27.3038 30.0753 27.3053 29.9711 27.467ZM2.51636 37.4446C2.51636 37.58 2.53084 37.6353 2.54849 37.5677C2.56621 37.5 2.56621 37.3892 2.54849 37.3216C2.53084 37.2539 2.51636 37.3093 2.51636 37.4446Z" fill="#323637"/>
</g>
<defs>
<clipPath id="clip0_5401_3490">
<rect width="36" height="36" fill="white" transform="translate(2.5 2.5)"/>
</clipPath>
</defs>
</svg>
